<?xml version="1.0" encoding="UTF-8"?>
<svg version="1.1" xmlns="http://www.w3.org/2000/svg" width="300" height="168">
<path d="M0 0 C2.87765108 0.0397304 5.75068817 0.02063278 8.62841797 -0.00512695 C22.13759323 0.00020208 32.83937171 1.93614419 43.53857422 10.83276367 C49.07044909 16.5169995 50.46436418 23.4313623 50.55810547 31.14916992 C50.59387695 32.68831055 50.59387695 32.68831055 50.63037109 34.25854492 C50.673023 36.38855547 50.70444425 38.51882325 50.72412109 40.64916992 C50.91200213 47.64009219 52.25697596 52.52795201 55.38232422 58.72729492 C58.86104697 69.69865129 58.21974489 83.38071317 53.80810547 94.00073242 C50.09894394 101.09386872 45.72154146 108.24441624 39.25732422 113.10229492 C38.30857422 113.96854492 37.35982422 114.83479492 36.38232422 115.72729492 C36.26799052 119.52731357 36.26799052 119.52731357 37.38232422 122.72729492 C34.4813992 124.66124494 33.48557685 125.02861434 30.19482422 125.35229492 C28.93669922 125.47604492 27.67857422 125.59979492 26.38232422 125.72729492 C26.81544922 126.34475586 27.24857422 126.9622168 27.69482422 127.59838867 C31.05991631 132.71613289 33.22144024 136.59490896 32.79248047 142.80932617 C32.24949079 145.34844935 31.24934794 146.93806386 29.38232422 148.72729492 C24.49871508 148.24850971 21.52964945 147.23751809 17.38232422 144.72729492 C14.78323734 144.6072919 14.78323734 144.6072919 12.38232422 144.72729492 C11.97240234 145.77530273 11.56248047 146.82331055 11.14013672 147.90307617 C10.59604983 149.28205501 10.05176883 150.66095728 9.50732422 152.03979492 C9.23791016 152.73008789 8.96849609 153.42038086 8.69091797 154.1315918 C7.46058754 157.23742592 6.24243959 159.93712187 4.38232422 162.72729492 C-2.6348867 165.13946117 -11.43307718 163.90295651 -18.61767578 162.72729492 C-20.25930617 161.08566454 -19.78883156 159.23933513 -19.80517578 156.97729492 C-19.77776983 152.71841079 -19.35552495 148.73140616 -18.61767578 144.53979492 C-16.69450547 133.13541303 -16.69450547 133.13541303 -17.61767578 121.72729492 C-20.79745051 118.33403709 -24.44990293 116.68428705 -28.61767578 114.72729492 C-38.84580229 107.78468515 -45.69995819 95.76969748 -48.23486328 83.81713867 C-49.59715181 72.82152409 -48.96335574 62.39989666 -44.51220703 52.19213867 C-42.89663263 45.93443347 -43.58399213 39.44469015 -43.78369141 33.02416992 C-43.91808736 25.29408567 -43.6090461 19.41684085 -38.55908203 13.18823242 C-37.77404297 12.49987305 -36.98900391 11.81151367 -36.18017578 11.10229492 C-35.41833984 10.4087793 -34.65650391 9.71526367 -33.87158203 9.00073242 C-22.39980149 0.98563485 -13.7737339 -0.21253588 0 0 Z " fill="#FCEB61" transform="translate(146.61767578125,1.272705078125)"/>
<path d="M0 0 C0.99 0 1.98 0 3 0 C6.78494997 6.97134971 7.79117515 13.1282112 8 21 C8.02046387 21.6501709 8.04092773 22.3003418 8.06201172 22.97021484 C8.27781254 30.54107836 8.42386216 37.72841353 6 45 C5.01 45 4.02 45 3 45 C3.04125 45.928125 3.0825 46.85625 3.125 47.8125 C3 51 3 51 1 54 C-1.625 54.6875 -1.625 54.6875 -4 55 C-4 55.99 -4 56.98 -4 58 C-4.66 58 -5.32 58 -6 58 C-6.66 59.32 -7.32 60.64 -8 62 C-8.66 62 -9.32 62 -10 62 C-10.103125 62.639375 -10.20625 63.27875 -10.3125 63.9375 C-10.539375 64.618125 -10.76625 65.29875 -11 66 C-12.485 66.495 -12.485 66.495 -14 67 C-14 67.66 -14 68.32 -14 69 C-19.445 69.99 -19.445 69.99 -25 71 C-25.66 69.68 -26.32 68.36 -27 67 C-30.20067422 65.39966289 -33.51730034 65.62950004 -37 66 C-38.9667968 66.6491071 -38.9667968 66.6491071 -40.875 67.5 C-45.51115099 69.40576957 -50.05155863 69.95296839 -55 69 C-57.625 66.6875 -57.625 66.6875 -59 64 C-59 63.01 -59 62.02 -59 61 C-59.66 61 -60.32 61 -61 61 C-61 60.34 -61 59.68 -61 59 C-62.65 59 -64.3 59 -66 59 C-65.2884375 60.60875 -65.2884375 60.60875 -64.5625 62.25 C-63.46233668 64.80839865 -62.54832997 67.25835017 -62 70 C-71.04177506 69.03218537 -77.6664799 62.95555603 -83.375 56.1875 C-92.50877622 43.98417603 -95.11990584 30.97050599 -94 16 C-92.99257698 12.42583833 -91.70364894 9.0470215 -90.125 5.6875 C-89.81820312 5.01074219 -89.51140625 4.33398438 -89.1953125 3.63671875 C-88 2 -88 2 -85.9921875 1.20703125 C-84 1 -84 1 -82 2 C-82.33 5.3 -82.66 8.6 -83 12 C-79.10779685 13.46315042 -79.10779685 13.46315042 -76.375 11.5 C-75.59125 11.005 -74.8075 10.51 -74 10 C-73.34 10.33 -72.68 10.66 -72 11 C-71.01 10.67 -70.02 10.34 -69 10 C-68.87882812 10.62648438 -68.75765625 11.25296875 -68.6328125 11.8984375 C-68.46523437 12.71570312 -68.29765625 13.53296875 -68.125 14.375 C-67.88136719 15.59316406 -67.88136719 15.59316406 -67.6328125 16.8359375 C-67.13341068 19.18673923 -67.13341068 19.18673923 -65 21 C-64.67 21.99 -64.34 22.98 -64 24 C-62.72125 24.020625 -61.4425 24.04125 -60.125 24.0625 C-59.40570313 24.07410156 -58.68640625 24.08570312 -57.9453125 24.09765625 C-55.91814596 24.12649242 -55.91814596 24.12649242 -54 23 C-54.928125 23.061875 -55.85625 23.12375 -56.8125 23.1875 C-60 23 -60 23 -61.8125 22 C-63.70103144 18.81931546 -63.69956547 15.66530121 -64 12 C-61.85473901 11.80606125 -59.70876323 11.62001324 -57.5625 11.4375 C-56.36753906 11.33308594 -55.17257813 11.22867188 -53.94140625 11.12109375 C-52.97074219 11.08113281 -52.00007813 11.04117188 -51 11 C-50 12 -50 12 -49.875 15.0625 C-50.00384291 19.12105166 -50.43610615 22.98225632 -51 27 C-51.66 27 -52.32 27 -53 27 C-53 27.99 -53 28.98 -53 30 C-50.60408962 30.02712351 -48.20849043 30.0468982 -45.8125 30.0625 C-45.13896484 30.07087891 -44.46542969 30.07925781 -43.77148438 30.08789062 C-40.04565869 30.10606538 -36.6211958 29.89299392 -33 29 C-32.90203125 27.68644531 -32.8040625 26.37289062 -32.703125 25.01953125 C-32.55300547 23.28377417 -32.40191257 21.54810108 -32.25 19.8125 C-32.1571875 18.51602539 -32.1571875 18.51602539 -32.0625 17.19335938 C-31.5856735 12.00787116 -30.98845122 8.71053654 -27 5 C-24.5625 4.3125 -24.5625 4.3125 -22 5 C-18.45459029 8.46483222 -16.44708536 10.93303262 -16 16 C-15.2575 15.195625 -14.515 14.39125 -13.75 13.5625 C-11.24695171 11.23011409 -10.2819045 10.36465606 -7 10 C-7 10.66 -7 11.32 -7 12 C-5.68 11.67 -4.36 11.34 -3 11 C-3 11.66 -3 12.32 -3 13 C-1.68 13 -0.36 13 1 13 C1.33 11.68 1.66 10.36 2 9 C1.01 9 0.02 9 -1 9 C-0.67 6.03 -0.34 3.06 0 0 Z " fill="#FABF30" transform="translate(192,51)"/>
<path d="M0 0 C2.87765108 0.0397304 5.75068817 0.02063278 8.62841797 -0.00512695 C23.17445184 0.00037532 34.45359571 2.44708437 45.38232422 12.72729492 C52.50534365 20.74069179 49.47654103 37.62515935 49.38232422 47.72729492 C44.44026633 46.86648566 39.68130991 45.96307036 35.00732422 44.10229492 C31.4051618 42.49085877 31.4051618 42.49085877 27.38232422 42.72729492 C28.45482422 43.24291992 29.52732422 43.75854492 30.63232422 44.28979492 C34.87832254 46.70131526 36.37859416 49.3190888 38.38232422 53.72729492 C38.38232422 54.71729492 38.38232422 55.70729492 38.38232422 56.72729492 C35.09502152 55.63152735 34.75721638 55.13759461 32.81982422 52.47729492 C29.1694389 47.99517624 24.61196087 45.97004424 19.38232422 43.72729492 C19.38232422 42.73729492 19.38232422 41.74729492 19.38232422 40.72729492 C9.15232422 40.72729492 -1.07767578 40.72729492 -11.61767578 40.72729492 C-11.94767578 42.04729492 -12.27767578 43.36729492 -12.61767578 44.72729492 C-14.28955078 45.59838867 -14.28955078 45.59838867 -16.36767578 46.16479492 C-21.44520918 47.83611182 -24.17692282 50.75292975 -27.30517578 55.03979492 C-27.73830078 55.59666992 -28.17142578 56.15354492 -28.61767578 56.72729492 C-29.27767578 56.72729492 -29.93767578 56.72729492 -30.61767578 56.72729492 C-29.74267578 50.97729492 -29.74267578 50.97729492 -28.61767578 48.72729492 C-27.95767578 48.72729492 -27.29767578 48.72729492 -26.61767578 48.72729492 C-26.32892578 48.08791992 -26.04017578 47.44854492 -25.74267578 46.78979492 C-24.61767578 44.72729492 -24.61767578 44.72729492 -22.61767578 43.72729492 C-27.31376819 44.53549923 -31.48149828 46.14405633 -35.89892578 47.88745117 C-38.65461948 48.73870713 -40.75886152 48.79169612 -43.61767578 48.72729492 C-43.70551053 44.72743563 -43.7583468 40.72782788 -43.80517578 36.72729492 C-43.8303125 35.60194336 -43.85544922 34.4765918 -43.88134766 33.31713867 C-43.9497754 25.51637603 -43.64818245 19.4651115 -38.55908203 13.18823242 C-37.77404297 12.49987305 -36.98900391 11.81151367 -36.18017578 11.10229492 C-35.41833984 10.4087793 -34.65650391 9.71526367 -33.87158203 9.00073242 C-22.39980149 0.98563485 -13.7737339 -0.21253588 0 0 Z " fill="#0C0A0E" transform="translate(146.61767578125,1.272705078125)"/>
<path d="M0 0 C1.65 0 3.3 0 5 0 C5 0.66 5 1.32 5 2 C5.66 2 6.32 2 7 2 C8.32 4.31 9.64 6.62 11 9 C15.99732897 9.27649156 20.45319099 9.48226159 25.125 7.5 C29.37945519 5.71226933 32.38250885 5.39442739 37 6 C40 8.5 40 8.5 42 11 C42.66 10.67 43.32 10.34 44 10 C46.6723621 9.86584528 49.32250488 9.95681459 52 10 C52.33 9.34 52.66 8.68 53 8 C53.495 10.97 53.495 10.97 54 14 C50.03230578 15.98384711 45.14470514 15.32630565 41 14 C41.26676204 15.98491642 41.26676204 15.98491642 42 18 C42.99 18.33 43.98 18.66 45 19 C46.1875 22.0625 46.1875 22.0625 47 25 C47.66 25 48.32 25 49 25 C50.12256131 27.24512262 50.13413762 28.51456649 50.125 31 C50.12886719 32.051875 50.12886719 32.051875 50.1328125 33.125 C50 35 50 35 49 37 C45.75728494 36.4409112 44.06942576 35.5867822 42 33 C42 32.34 42 31.68 42 31 C40.68 31.33 39.36 31.66 38 32 C38 31.34 38 30.68 38 30 C33.52842427 29.58104155 31.31923661 30.68895314 27.6875 33.25 C26.80449219 33.85328125 25.92148438 34.4565625 25.01171875 35.078125 C24.34785156 35.71234375 23.68398437 36.3465625 23 37 C23 38.32 23 39.64 23 41 C22.80299986 44.84150265 22.06486042 45.93050669 19.375 48.8125 C16.01429352 51.42275746 13.21547257 51.42154726 9 51 C7.875 45.375 7.875 45.375 9 42 C8.34 42 7.68 42 7 42 C6.18658262 37.67409847 5.96097603 33.64670286 6.078125 29.2421875 C6.10390625 28.20449219 6.1296875 27.16679687 6.15625 26.09765625 C6.21899189 23.94090382 6.29723974 21.78454926 6.390625 19.62890625 C6.64340403 13.28531463 6.64340403 13.28531463 3.53515625 7.96484375 C2.69855469 7.31644531 1.86195312 6.66804688 1 6 C0.1875 2.6875 0.1875 2.6875 0 0 Z " fill="#F9CE4C" transform="translate(126,110)"/>
<path d="M0 0 C3.14733486 0.84440691 4.66750241 2.38390941 6.625 4.953125 C8.03496843 7.5615666 7.90619298 9.80047897 7.5625 12.6875 C8.2225 13.0175 8.8825 13.3475 9.5625 13.6875 C8.9025 16.9875 8.2425 20.2875 7.5625 23.6875 C5.9125 23.3575 4.2625 23.0275 2.5625 22.6875 C2.2325 23.3475 1.9025 24.0075 1.5625 24.6875 C0.5725 25.0175 -0.4175 25.3475 -1.4375 25.6875 C-0.9425 27.1725 -0.9425 27.1725 -0.4375 28.6875 C0.14 28.831875 0.7175 28.97625 1.3125 29.125 C4.5734487 29.94023717 6.22396644 31.28576284 8.5625 33.6875 C9.52351954 37.60022241 9.84032434 39.85402698 8.5625 43.6875 C6 44.875 6 44.875 3.5625 45.6875 C3.5625 45.0275 3.5625 44.3675 3.5625 43.6875 C2.5725 43.6875 1.5825 43.6875 0.5625 43.6875 C0.5625 44.3475 0.5625 45.0075 0.5625 45.6875 C-8.40871262 46.48533511 -8.40871262 46.48533511 -12.5 43.3125 C-13.9540625 42.013125 -13.9540625 42.013125 -15.4375 40.6875 C-18.39630505 39.71427322 -21.36004224 39.14569927 -24.4375 38.6875 C-24.4375 39.3475 -24.4375 40.0075 -24.4375 40.6875 C-25.0975 40.6875 -25.7575 40.6875 -26.4375 40.6875 C-26.4375 40.0275 -26.4375 39.3675 -26.4375 38.6875 C-28.0875 38.6875 -29.7375 38.6875 -31.4375 38.6875 C-31.7675 39.3475 -32.0975 40.0075 -32.4375 40.6875 C-32.4375 40.0275 -32.4375 39.3675 -32.4375 38.6875 C-36.3975 38.1925 -36.3975 38.1925 -40.4375 37.6875 C-40.4375 37.0275 -40.4375 36.3675 -40.4375 35.6875 C-41.0975 35.0275 -41.7575 34.3675 -42.4375 33.6875 C-40.26325883 31.18712266 -38.70704202 30.25121414 -35.4375 29.6875 C-36.7575 28.3675 -38.0775 27.0475 -39.4375 25.6875 C-38.4475 25.3575 -37.4575 25.0275 -36.4375 24.6875 C-37.0975 23.0375 -37.7575 21.3875 -38.4375 19.6875 C-37.32375 19.708125 -36.21 19.72875 -35.0625 19.75 C-31.60534079 19.95130718 -31.60534079 19.95130718 -29.4375 18.6875 C-30.365625 18.749375 -31.29375 18.81125 -32.25 18.875 C-35.4375 18.6875 -35.4375 18.6875 -37.25 17.6875 C-39.13853144 14.50681546 -39.13706547 11.35280121 -39.4375 7.6875 C-37.29223901 7.49356125 -35.14626323 7.30751324 -33 7.125 C-31.80503906 7.02058594 -30.61007813 6.91617188 -29.37890625 6.80859375 C-28.40824219 6.76863281 -27.43757812 6.72867188 -26.4375 6.6875 C-25.4375 7.6875 -25.4375 7.6875 -25.3125 10.75 C-25.44134291 14.80855166 -25.87360615 18.66975632 -26.4375 22.6875 C-27.0975 22.6875 -27.7575 22.6875 -28.4375 22.6875 C-28.4375 23.6775 -28.4375 24.6675 -28.4375 25.6875 C-26.04158962 25.71462351 -23.64599043 25.7343982 -21.25 25.75 C-20.57646484 25.75837891 -19.90292969 25.76675781 -19.20898438 25.77539062 C-15.48315869 25.79356538 -12.0586958 25.58049392 -8.4375 24.6875 C-8.33953125 23.37394531 -8.2415625 22.06039062 -8.140625 20.70703125 C-7.99050547 18.97127417 -7.83941257 17.23560108 -7.6875 15.5 C-7.5946875 14.20352539 -7.5946875 14.20352539 -7.5 12.88085938 C-6.98075586 7.23407935 -6.23087803 1.75742714 0 0 Z " fill="#F6D346" transform="translate(167.4375,55.3125)"/>
<path d="M0 0 C0.33 0 0.66 0 1 0 C1.79786667 3.52606876 2.13191042 6.80994846 2.17578125 10.421875 C2.21155273 11.96101563 2.21155273 11.96101563 2.24804688 13.53125 C2.29069879 15.66126054 2.32212003 17.79152833 2.34179688 19.921875 C2.52967791 26.91279727 3.87465174 31.80065709 7 38 C10.47872275 48.97135636 9.83742067 62.65341825 5.42578125 73.2734375 C1.71661972 80.3665738 -2.66078276 87.51712131 -9.125 92.375 C-10.07375 93.24125 -11.0225 94.1075 -12 95 C-12.1143337 98.80001865 -12.1143337 98.80001865 -11 102 C-13.90092502 103.93395001 -14.89674737 104.30131941 -18.1875 104.625 C-19.445625 104.74875 -20.70375 104.8725 -22 105 C-21.566875 105.61746094 -21.13375 106.23492187 -20.6875 106.87109375 C-17.32240791 111.98883797 -15.16088398 115.86761404 -15.58984375 122.08203125 C-16.13283343 124.62115443 -17.13297628 126.21076894 -19 128 C-23.88360914 127.52121479 -26.85267477 126.51022317 -31 124 C-33.59908688 123.87999698 -33.59908688 123.87999698 -36 124 C-36.40992188 125.04800781 -36.81984375 126.09601563 -37.2421875 127.17578125 C-37.78627439 128.55476009 -38.33055538 129.93366236 -38.875 131.3125 C-39.14441406 132.00279297 -39.41382813 132.69308594 -39.69140625 133.40429688 C-40.92173667 136.51013099 -42.13988463 139.20982695 -44 142 C-51.01721092 144.41216625 -59.8154014 143.17566159 -67 142 C-68.64163039 140.35836961 -68.17115578 138.51204021 -68.1875 136.25 C-68.16009405 131.99111587 -67.73784917 128.00411124 -67 123.8125 C-66.11663048 118.5999933 -65.80776104 113.58400115 -65.8125 108.3125 C-65.81185547 107.61680908 -65.81121094 106.92111816 -65.81054688 106.2043457 C-65.81037903 102.4767948 -65.81037903 102.4767948 -67 99 C-65.0625 98.4375 -65.0625 98.4375 -63 98 C-62 99 -62 99 -61.88647461 101.95922852 C-61.89171143 103.25272217 -61.89694824 104.54621582 -61.90234375 105.87890625 C-61.9037587 106.5655687 -61.90517365 107.25223114 -61.90663147 107.95970154 C-61.91224521 110.16067801 -61.92479993 112.36155409 -61.9375 114.5625 C-61.94251324 116.05143083 -61.94707645 117.54036324 -61.95117188 119.02929688 C-61.96221907 122.68623075 -61.97949287 126.34310558 -62 130 C-61.34 130 -60.68 130 -60 130 C-59.505 129.01 -59.505 129.01 -59 128 C-59.33 131.63 -59.66 135.26 -60 139 C-52.4590535 137.8979332 -52.4590535 137.8979332 -47 133 C-46.2127322 130.8618034 -46.2127322 130.8618034 -46 129 C-46.66 128.67 -47.32 128.34 -48 128 C-45.91260028 123.98945496 -43.94527734 121.92547259 -40.0625 119.625 C-38.78052734 118.83996094 -38.78052734 118.83996094 -37.47265625 118.0390625 C-34.73791862 116.88986786 -33.71009886 116.9310515 -31 118 C-31 118.66 -31 119.32 -31 120 C-29.02 119.505 -29.02 119.505 -27 119 C-26.401875 119.804375 -25.80375 120.60875 -25.1875 121.4375 C-23.19052724 124.22327984 -23.19052724 124.22327984 -20 125 C-20 121.04 -20 117.08 -20 113 C-20.66 113 -21.32 113 -22 113 C-24 110 -24 110 -24 107 C-25.32 106.67 -26.64 106.34 -28 106 C-28 104.68 -28 103.36 -28 102 C-23.71 102 -19.42 102 -15 102 C-15.33 100.02 -15.66 98.04 -16 96 C-14.33911314 92.32856589 -12.03130251 89.6401667 -9 87 C-8.34 87 -7.68 87 -7 87 C-7 86.01 -7 85.02 -7 84 C-4.525 83.505 -4.525 83.505 -2 83 C-1.34 80.03 -0.68 77.06 0 74 C0.99 74 1.98 74 3 74 C2.979375 73.05125 2.95875 72.1025 2.9375 71.125 C3 68 3 68 4 66 C4.10022297 63.52979849 4.14179197 61.09484277 4.125 58.625 C4.12089111 57.90908691 4.11678223 57.19317383 4.11254883 56.45556641 C4.25131443 43.73539898 4.25131443 43.73539898 0 32 C0 31.01 0 30.02 0 29 C-1.98 29 -3.96 29 -6 29 C-6.66 30.98 -7.32 32.96 -8 35 C-8.33 34.34 -8.66 33.68 -9 33 C-9.99 32.67 -10.98 32.34 -12 32 C-12.28875 31.030625 -12.5775 30.06125 -12.875 29.0625 C-13.66698157 25.81397168 -13.66698157 25.81397168 -16.4375 24.8125 C-17.283125 24.544375 -18.12875 24.27625 -19 24 C-20.66015625 22.44921875 -20.66015625 22.44921875 -22 21 C-14.72715214 21.47690806 -8.75825393 23.34101485 -2 26 C-0.515 26.495 -0.515 26.495 1 27 C0.67 18.09 0.34 9.18 0 0 Z " fill="#D1A35A" transform="translate(195,22)"/>
<path d="M0 0 C0.66 0 1.32 0 2 0 C1.67 3.3 1.34 6.6 1 10 C4.89220315 11.46315042 4.89220315 11.46315042 7.625 9.5 C8.40875 9.005 9.1925 8.51 10 8 C10.66 8.33 11.32 8.66 12 9 C12.99 8.67 13.98 8.34 15 8 C15.12117188 8.62648438 15.24234375 9.25296875 15.3671875 9.8984375 C15.53476563 10.71570312 15.70234375 11.53296875 15.875 12.375 C16.11863281 13.59316406 16.11863281 13.59316406 16.3671875 14.8359375 C16.86658932 17.18673923 16.86658932 17.18673923 19 19 C21.34089616 21.82858286 22.89048863 24.48654733 24 28 C23.67 28.66 23.34 29.32 23 30 C23.66 30.66 24.32 31.32 25 32 C24.030625 32.474375 23.06125 32.94875 22.0625 33.4375 C19.19522563 34.70193947 19.19522563 34.70193947 18 36 C18.66 36.66 19.32 37.32 20 38 C19.67 38.66 19.34 39.32 19 40 C22.465 40.495 22.465 40.495 26 41 C26 41.66 26 42.32 26 43 C24.68 43 23.36 43 22 43 C22.02320313 43.62648437 22.04640625 44.25296875 22.0703125 44.8984375 C22.09738281 46.12433594 22.09738281 46.12433594 22.125 47.375 C22.14820313 48.18710938 22.17140625 48.99921875 22.1953125 49.8359375 C22 52 22 52 20 54 C19.505 53.505 19.505 53.505 19 53 C16.69 53.66 14.38 54.32 12 55 C11.67 53.68 11.34 52.36 11 51 C9.515 51.495 9.515 51.495 8 52 C7.67 49.69 7.34 47.38 7 45 C6.01 44.67 5.02 44.34 4 44 C3 43 3 43 2.90234375 41.15234375 C2.93489583 39.1015625 2.96744792 37.05078125 3 35 C2.34 35 1.68 35 1 35 C-2.59431318 23.51103466 -3.78691429 11.59742501 0 0 Z " fill="#FBC936" transform="translate(108,53)"/>
<path d="M0 0 C0.33 0.66 0.66 1.32 1 2 C3.02463255 2.65213292 3.02463255 2.65213292 5 3 C4.690625 3.5775 4.38125 4.155 4.0625 4.75 C0.9297586 11.38404061 0.87357199 18.79360333 1 26 C2.98 26.33 4.96 26.66 7 27 C6.67 27.66 6.34 28.32 6 29 C4.07507518 29.34917241 2.13253796 29.60253742 0.1875 29.8125 C-5.90413623 30.63768861 -10.89528101 32.37281849 -16.44140625 34.9765625 C-19 36 -19 36 -23 36 C-23.05855176 32.47923768 -23.0937806 28.9586024 -23.125 25.4375 C-23.14175781 24.44685547 -23.15851563 23.45621094 -23.17578125 22.43554688 C-23.21274359 16.87271509 -22.87082551 12.25156925 -21 7 C-19.329375 6.87625 -19.329375 6.87625 -17.625 6.75 C-16.42875 6.5025 -15.2325 6.255 -14 6 C-13.67 5.34 -13.34 4.68 -13 4 C-12.67 3.34 -12.34 2.68 -12 2 C-8.6875 1.3125 -8.6875 1.3125 -5 1 C-3.33065717 0.68033861 -1.6626783 0.35268934 0 0 Z " fill="#060307" transform="translate(127,14)"/>
<path d="M0 0 C-0.165 1.175625 -0.33 2.35125 -0.5 3.5625 C-1.55090366 13.18816835 -1.81115942 22.68803443 1 32 C1 33.32 1 34.64 1 36 C1.66 36 2.32 36 3 36 C3 38.64 3 41.28 3 44 C3.639375 44.185625 4.27875 44.37125 4.9375 44.5625 C7 46 7 46 7.75 49.625 C7.87375 51.295625 7.87375 51.295625 8 53 C9.32 52.34 10.64 51.68 12 51 C12.33 51.99 12.66 52.98 13 54 C12.67 54.66 12.34 55.32 12 56 C14.475 55.505 14.475 55.505 17 55 C17 57.31 17 59.62 17 62 C17.66 62 18.32 62 19 62 C21.29648649 64.5614657 22 65.47967572 22 69 C12.95822494 68.03218537 6.3335201 61.95555603 0.625 55.1875 C-8.50877622 42.98417603 -11.11990584 29.97050599 -10 15 C-8.98960789 11.38385982 -7.66960654 8.04627877 -6 4.6875 C-5.67 4.01074219 -5.34 3.33398438 -5 2.63671875 C-3.62468653 0.38571741 -2.61389247 0 0 0 Z " fill="#EA9918" transform="translate(108,52)"/>
<path d="M0 0 C1.25176025 -0.01498535 1.25176025 -0.01498535 2.52880859 -0.03027344 C10.39085952 0.07812593 17.32011274 1.9970925 23.875 6.4375 C23.49903791 9.21961944 23.20181541 11.0254284 21.4375 13.25 C19.875 14.4375 19.875 14.4375 17.875 14.4375 C17.875 15.0975 17.875 15.7575 17.875 16.4375 C8.90378738 17.23533511 8.90378738 17.23533511 4.8125 14.0625 C3.843125 13.19625 2.87375 12.33 1.875 11.4375 C-1.08380505 10.46427322 -4.04754224 9.89569927 -7.125 9.4375 C-7.125 10.0975 -7.125 10.7575 -7.125 11.4375 C-7.785 11.4375 -8.445 11.4375 -9.125 11.4375 C-9.125 10.7775 -9.125 10.1175 -9.125 9.4375 C-10.775 9.4375 -12.425 9.4375 -14.125 9.4375 C-14.455 10.0975 -14.785 10.7575 -15.125 11.4375 C-15.125 10.7775 -15.125 10.1175 -15.125 9.4375 C-17.765 9.1075 -20.405 8.7775 -23.125 8.4375 C-22.15870958 5.96462773 -21.46117965 4.66161977 -19.2265625 3.171875 C-12.80402826 0.61906959 -6.83701825 0.04801454 0 0 Z " fill="#997A32" transform="translate(150.125,84.5625)"/>
<path d="M0 0 C2.89521962 0.02673557 5.78654131 0.00021103 8.68164062 -0.03173828 C22.48775976 -0.05735742 32.46958298 1.85124853 43.53320312 10.65185547 C41.53320312 11.65185547 41.53320312 11.65185547 38.53320312 11.65185547 C37.54320312 11.98185547 36.55320312 12.31185547 35.53320312 12.65185547 C35.53320312 11.99185547 35.53320312 11.33185547 35.53320312 10.65185547 C33.80070312 10.74466797 33.80070312 10.74466797 32.03320312 10.83935547 C28.83313334 11.01078778 27.12497815 10.48114321 24.09570312 9.21435547 C18.28179609 6.92014216 12.21314504 6.83447287 6.03320312 6.46435547 C4.82921875 6.3825 3.62523437 6.30064453 2.38476562 6.21630859 C-0.56521709 6.01730182 -3.51546131 5.82945853 -6.46679688 5.65185547 C-6.79679687 6.64185547 -7.12679687 7.63185547 -7.46679688 8.65185547 C-8.53800781 8.78462891 -9.60921875 8.91740234 -10.71289062 9.05419922 C-12.11005457 9.23236106 -13.50718847 9.41075865 -14.90429688 9.58935547 C-15.61134766 9.67636719 -16.31839844 9.76337891 -17.046875 9.85302734 C-20.55497656 10.03401737 -20.55497656 10.03401737 -23.46679688 11.65185547 C-25.13296803 11.69249379 -26.80067782 11.69457647 -28.46679688 11.65185547 C-28.13679688 10.33185547 -27.80679688 9.01185547 -27.46679688 7.65185547 C-28.78679687 8.64185547 -30.10679688 9.63185547 -31.46679688 10.65185547 C-32.12679687 10.32185547 -32.78679687 9.99185547 -33.46679688 9.65185547 C-31.59179688 7.96435547 -31.59179688 7.96435547 -28.46679688 5.65185547 C-27.89219727 5.22364502 -27.31759766 4.79543457 -26.72558594 4.35424805 C-18.45620129 -0.75168713 -9.39105415 -0.10318095 0 0 Z " fill="#363639" transform="translate(146.466796875,1.34814453125)"/>
<path d="M0 0 C0.74918701 0.00684814 1.49837402 0.01369629 2.27026367 0.02075195 C9.43474898 0.22947182 13.84295294 1.71795294 19.0625 6.9375 C20.5625 9.4375 20.5625 9.4375 20.5625 13.4375 C19.67578613 13.43226318 18.78907227 13.42702637 17.87548828 13.42163086 C14.53938121 13.40443892 11.20332223 13.39197758 7.8671875 13.38256836 C6.43195852 13.37758493 4.99673449 13.37079575 3.56152344 13.36206055 C-4.48850017 13.31434423 -12.44033763 13.36888249 -20.4375 14.4375 C-19.98405595 9.56297646 -18.96662227 6.87375063 -15.4375 3.4375 C-10.157114 0.70148022 -5.91076873 -0.08265422 0 0 Z " fill="#E7D06A" transform="translate(148.4375,20.5625)"/>
<path d="M0 0 C6.53335335 7.49671644 4.43883696 22.40682002 4 32 C3.54520324 34.83160416 2.90838774 37.27483679 2 40 C1.01 40 0.02 40 -1 40 C-0.95875 40.928125 -0.9175 41.85625 -0.875 42.8125 C-1 46 -1 46 -3 49 C-5.625 49.6875 -5.625 49.6875 -8 50 C-8 50.99 -8 51.98 -8 53 C-8.66 53 -9.32 53 -10 53 C-10.66 54.32 -11.32 55.64 -12 57 C-12.66 57 -13.32 57 -14 57 C-14.1546875 57.928125 -14.1546875 57.928125 -14.3125 58.875 C-15 61 -15 61 -18 63 C-21.54223486 62.68372903 -24.62644274 62.12451909 -28 61 C-28 60.34 -28 59.68 -28 59 C-26.68 59 -25.36 59 -24 59 C-23.67 58.01 -23.34 57.02 -23 56 C-22.01 56 -21.02 56 -20 56 C-20 54.35 -20 52.7 -20 51 C-18.515 50.505 -18.515 50.505 -17 50 C-17 49.34 -17 48.68 -17 48 C-15.35 48 -13.7 48 -12 48 C-12.020625 47.05125 -12.04125 46.1025 -12.0625 45.125 C-12 42 -12 42 -11 40 C-8.0262656 38.90963072 -7.11592499 38.96135834 -4 40 C-4.02320313 39.30132812 -4.04640625 38.60265625 -4.0703125 37.8828125 C-4.08835938 36.97273438 -4.10640625 36.06265625 -4.125 35.125 C-4.14820313 34.22007813 -4.17140625 33.31515625 -4.1953125 32.3828125 C-4 30 -4 30 -2 28 C0.55837332 18.87197666 0.21427519 9.38049178 0 0 Z " fill="#EB9615" transform="translate(196,56)"/>
<path d="M0 0 C0.33 0.99 0.66 1.98 1 3 C1.58700684 2.85780029 2.17401367 2.71560059 2.77880859 2.5690918 C9.46922761 1.07425654 15.7856986 0.72678316 22.625 0.8125 C23.60984375 0.81314453 24.5946875 0.81378906 25.609375 0.81445312 C31.15962629 0.84775463 36.50971561 1.18493403 42 2 C42.33 1.34 42.66 0.68 43 0 C43 2.64 43 5.28 43 8 C39.30995799 10.34894745 36.1328897 10.23059746 31.828125 10.1953125 C31.1457074 10.1924826 30.46328979 10.18965271 29.76019287 10.18673706 C27.58994693 10.17558098 25.42012029 10.15048557 23.25 10.125 C21.77474556 10.11496426 20.29948463 10.10583944 18.82421875 10.09765625 C15.21601058 10.07565687 11.60804625 10.04115883 8 10 C7.86948242 10.64203369 7.73896484 11.28406738 7.60449219 11.94555664 C7.30526855 12.9625061 7.30526855 12.9625061 7 14 C5.328125 14.87109375 5.328125 14.87109375 3.25 15.4375 C-1.82753339 17.1088169 -4.55924704 20.02563483 -7.6875 24.3125 C-8.120625 24.869375 -8.55375 25.42625 -9 26 C-9.66 26 -10.32 26 -11 26 C-10.125 20.25 -10.125 20.25 -9 18 C-8.34 18 -7.68 18 -7 18 C-6.71125 17.360625 -6.4225 16.72125 -6.125 16.0625 C-5 14 -5 14 -3 13 C-3.33 12.34 -3.66 11.68 -4 11 C-0.7 10.67 2.6 10.34 6 10 C4.02 9.34 2.04 8.68 0 8 C0 5.36 0 2.72 0 0 Z " fill="#3E3D36" transform="translate(127,32)"/>
<path d="M0 0 C0.99 0.33 1.98 0.66 3 1 C3 11.23 3 21.46 3 32 C3.66 32 4.32 32 5 32 C5.33 31.34 5.66 30.68 6 30 C5.67 33.63 5.34 37.26 5 41 C12.5409465 39.8979332 12.5409465 39.8979332 18 35 C18.7872678 32.8618034 18.7872678 32.8618034 19 31 C18.34 30.67 17.68 30.34 17 30 C18.9043529 26.47694714 20.43734178 23.9257612 24 22 C26.67960305 21.47025122 29.26862168 21.22761486 32 21 C32.495 21.99 32.495 21.99 33 23 C32.05125 23.37125 31.1025 23.7425 30.125 24.125 C26.74446192 25.73995905 26.74446192 25.73995905 25.625 29.1875 C25.315625 30.5796875 25.315625 30.5796875 25 32 C24.34 32 23.68 32 23 32 C23.02320313 32.61488281 23.04640625 33.22976562 23.0703125 33.86328125 C23.09738281 35.07564453 23.09738281 35.07564453 23.125 36.3125 C23.14820313 37.11300781 23.17140625 37.91351563 23.1953125 38.73828125 C23 41 23 41 21 44 C13.98278908 46.41216625 5.1845986 45.17566159 -2 44 C-3.64163039 42.35836961 -3.17115578 40.51204021 -3.1875 38.25 C-3.16009405 33.99111587 -2.73784917 30.00411124 -2 25.8125 C-1.11663048 20.5999933 -0.80776104 15.58400115 -0.8125 10.3125 C-0.81185547 9.61680908 -0.81121094 8.92111816 -0.81054688 8.2043457 C-0.81037903 4.4767948 -0.81037903 4.4767948 -2 1 C-1.34 0.67 -0.68 0.34 0 0 Z " fill="#E6A841" transform="translate(130,120)"/>
<path d="M0 0 C1.2065625 0.0309375 1.2065625 0.0309375 2.4375 0.0625 C0.82155168 2.10369788 -0.8481382 4.10322937 -2.5625 6.0625 C-3.2225 6.0625 -3.8825 6.0625 -4.5625 6.0625 C-5.2225 8.7025 -5.8825 11.3425 -6.5625 14.0625 C-5.9025 14.0625 -5.2425 14.0625 -4.5625 14.0625 C-3.9025 12.7425 -3.2425 11.4225 -2.5625 10.0625 C-1.9025 10.0625 -1.2425 10.0625 -0.5625 10.0625 C-0.2325 10.7225 0.0975 11.3825 0.4375 12.0625 C1.7575 11.4025 3.0775 10.7425 4.4375 10.0625 C4.7675 11.0525 5.0975 12.0425 5.4375 13.0625 C6.0975 13.0625 6.7575 13.0625 7.4375 13.0625 C7.4375 13.7225 7.4375 14.3825 7.4375 15.0625 C6.7775 15.0625 6.1175 15.0625 5.4375 15.0625 C5.4375 16.0525 5.4375 17.0425 5.4375 18.0625 C8.0775 18.0625 10.7175 18.0625 13.4375 18.0625 C13.4375 18.3925 13.4375 18.7225 13.4375 19.0625 C10.7975 19.0625 8.1575 19.0625 5.4375 19.0625 C5.91300561 20.54284764 6.39301216 22.02175021 6.875 23.5 C7.14183594 24.32371094 7.40867188 25.14742187 7.68359375 25.99609375 C8.25905494 28.02469588 8.25905494 28.02469588 9.4375 29.0625 C12.10808851 29.20365161 14.76182238 29.10497107 17.4375 29.0625 C17.1075 29.7225 16.7775 30.3825 16.4375 31.0625 C11.51128289 32.12501742 8.55481351 31.91538559 3.4375 31.0625 C2.1175 26.7725 0.7975 22.4825 -0.5625 18.0625 C-1.5525 18.7225 -2.5425 19.3825 -3.5625 20.0625 C-3.8925 19.4025 -4.2225 18.7425 -4.5625 18.0625 C-5.284375 18.59875 -6.00625 19.135 -6.75 19.6875 C-9.5625 21.0625 -9.5625 21.0625 -12.375 20.25 C-13.096875 19.858125 -13.81875 19.46625 -14.5625 19.0625 C-13.9025 15.7625 -13.2425 12.4625 -12.5625 9.0625 C-14.5425 9.0625 -16.5225 9.0625 -18.5625 9.0625 C-18.665625 9.825625 -18.76875 10.58875 -18.875 11.375 C-19.60614039 14.23309424 -20.33201913 15.21992885 -22.5625 17.0625 C-21.94712614 12.87795774 -20.86416269 9.62891471 -18.5625 6.0625 C-15.90781139 4.82891953 -13.71553524 3.99411658 -10.9375 3.25 C-7.28834852 2.18170751 -3.5688894 0.08704608 0 0 Z " fill="#FAE05C" transform="translate(122.5625,43.9375)"/>
<path d="M0 0 C0.33 0 0.66 0 1 0 C1.01458252 0.60996826 1.02916504 1.21993652 1.04418945 1.84838867 C1.11894775 4.62871064 1.21551482 7.40786824 1.3125 10.1875 C1.33505859 11.14720703 1.35761719 12.10691406 1.38085938 13.09570312 C1.57675314 18.24236661 1.81267454 21.75023271 5 26 C5.6875 28.8125 5.6875 28.8125 6 31 C6.66 31 7.32 31 8 31 C10 34 10 34 10 37 C12.57213134 38.61949011 13.67669159 39.04408751 16.75 38.625 C17.4925 38.41875 18.235 38.2125 19 38 C19.33 38.99 19.66 39.98 20 41 C19.67 41.66 19.34 42.32 19 43 C21.475 42.505 21.475 42.505 24 42 C24 44.31 24 46.62 24 49 C24.66 49 25.32 49 26 49 C28.29648649 51.5614657 29 52.47967572 29 56 C19.85533343 55.02117205 13.22185303 48.81689692 7.4375 42 C2.89358106 35.94144141 1.61917592 30.61648155 2 23 C1.34 23 0.68 23 0 23 C0 15.41 0 7.82 0 0 Z " fill="#C38330" transform="translate(101,65)"/>
<path d="M0 0 C0.66 0.33 1.32 0.66 2 1 C2.40729228 3.32156597 2.74438677 5.6568787 3 8 C0.09907498 9.93395001 -0.89674737 10.30131941 -4.1875 10.625 C-5.445625 10.74875 -6.70375 10.8725 -8 11 C-7.566875 11.61746094 -7.13375 12.23492187 -6.6875 12.87109375 C-3.32240791 17.98883797 -1.16088398 21.86761404 -1.58984375 28.08203125 C-2.13283343 30.62115443 -3.13297628 32.21076894 -5 34 C-9.88360914 33.52121479 -12.85267477 32.51022317 -17 30 C-18.65 30 -20.3 30 -22 30 C-23.65 34.29 -25.3 38.58 -27 43 C-27.33 43 -27.66 43 -28 43 C-28 40.69 -28 38.38 -28 36 C-27.34 36 -26.68 36 -26 36 C-25.95875 35.0925 -25.9175 34.185 -25.875 33.25 C-25 30 -25 30 -21.9375 27.625 C-20.968125 27.08875 -19.99875 26.5525 -19 26 C-20.98 26 -22.96 26 -25 26 C-23.25 24.4375 -23.25 24.4375 -21 23 C-18.75 23.3125 -18.75 23.3125 -17 24 C-17 24.66 -17 25.32 -17 26 C-15.68 25.67 -14.36 25.34 -13 25 C-12.1028125 26.2065625 -12.1028125 26.2065625 -11.1875 27.4375 C-9.19052724 30.22327984 -9.19052724 30.22327984 -6 31 C-6 27.04 -6 23.08 -6 19 C-6.66 19 -7.32 19 -8 19 C-10 16 -10 16 -10 13 C-11.32 12.67 -12.64 12.34 -14 12 C-14 10.68 -14 9.36 -14 8 C-9.71 8 -5.42 8 -1 8 C-1.33 6.02 -1.66 4.04 -2 2 C-1.34 1.34 -0.68 0.68 0 0 Z " fill="#E2B85E" transform="translate(181,116)"/>
<path d="M0 0 C0.99 0.33 1.98 0.66 3 1 C3.05847045 4.85410207 3.09375405 8.70808865 3.125 12.5625 C3.14175781 13.64853516 3.15851563 14.73457031 3.17578125 15.85351562 C3.21137698 21.70901377 2.82960814 26.45400031 1 32 C0.76307225 34.58930993 0.76307225 34.58930993 0.875 36.9375 C0.89304688 37.70964844 0.91109375 38.48179687 0.9296875 39.27734375 C0.95289063 39.84582031 0.97609375 40.41429687 1 41 C2.68029297 41.09087891 2.68029297 41.09087891 4.39453125 41.18359375 C5.86719984 41.26801424 7.33985544 41.35266149 8.8125 41.4375 C9.55048828 41.47681641 10.28847656 41.51613281 11.04882812 41.55664062 C14.23071342 41.74381035 16.96162378 41.98720793 20 43 C20.66 41.68 21.32 40.36 22 39 C22 42 22 42 21 44 C13.85958801 46.30335871 5.27574155 45.19057589 -2 44 C-3.64163039 42.35836961 -3.17115578 40.51204021 -3.1875 38.25 C-3.16009405 33.99111587 -2.73784917 30.00411124 -2 25.8125 C-1.11663048 20.5999933 -0.80776104 15.58400115 -0.8125 10.3125 C-0.81185547 9.61680908 -0.81121094 8.92111816 -0.81054688 8.2043457 C-0.81037903 4.4767948 -0.81037903 4.4767948 -2 1 C-1.34 0.67 -0.68 0.34 0 0 Z " fill="#D4B16C" transform="translate(130,120)"/>
<path d="M0 0 C1.32 0.33 2.64 0.66 4 1 C3.34 3.64 2.68 6.28 2 9 C2.99 9 3.98 9 5 9 C4.67 10.65 4.34 12.3 4 14 C3.2575 13.649375 2.515 13.29875 1.75 12.9375 C-1.17937817 11.93884835 -2.15369057 12.08511483 -5 13 C-5.33 12.67 -5.66 12.34 -6 12 C-9.79450934 12.39253545 -11.51015791 14.24338912 -14 17 C-14.268125 15.7625 -14.53625 14.525 -14.8125 13.25 C-15.63881995 9.89716221 -16.62671274 7.58904064 -19 5 C-16.03 3.68 -13.06 2.36 -10 1 C-9.38125 1.804375 -8.7625 2.60875 -8.125 3.4375 C-6.25835959 6.03874519 -6.25835959 6.03874519 -4 7 C-3.67 6.01 -3.34 5.02 -3 4 C-2.03126968 2.64377755 -1.03565785 1.30582947 0 0 Z " fill="#F9E15F" transform="translate(189,51)"/>
<path d="M0 0 C2.5625 0.4375 2.5625 0.4375 4.875 1.9375 C7.20298858 5.38637197 7.21051989 8.45454849 6.5625 12.4375 C5.19876745 15.81094366 4.46604802 17.04364574 1.125 18.5 C-1.4375 18.4375 -1.4375 18.4375 -3.75 17.1875 C-6.36290108 12.92943898 -6.26324879 8.31016175 -5.4375 3.4375 C-3.65421965 1.08681227 -2.93216099 0.52628531 0 0 Z " fill="#996616" transform="translate(167.4375,55.5625)"/>
<path d="M0 0 C1.2694043 -0.01740234 1.2694043 -0.01740234 2.56445312 -0.03515625 C8.3222643 -0.00852027 12.73116643 0.85752202 17.9375 3.375 C18.4325 4.86 18.4325 4.86 18.9375 6.375 C6.22387273 6.48685009 -6.38049345 6.30578947 -19.0625 5.375 C-19.0625 4.715 -19.0625 4.055 -19.0625 3.375 C-12.59185977 0.79848203 -6.94190347 -0.09560387 0 0 Z " fill="#FDFAF1" transform="translate(150.0625,86.625)"/>
<path d="M0 0 C0.98484375 0.00064453 1.9696875 0.00128906 2.984375 0.00195312 C8.53462629 0.03525463 13.88471561 0.37243403 19.375 1.1875 C19.045 2.5075 18.715 3.8275 18.375 5.1875 C6.165 5.5175 -6.045 5.8475 -18.625 6.1875 C-18.625 5.1975 -18.625 4.2075 -18.625 3.1875 C-19.615 2.8575 -20.605 2.5275 -21.625 2.1875 C-14.33802819 0.42226458 -7.48238429 -0.09377658 0 0 Z " fill="#615F57" transform="translate(149.625,32.8125)"/>
<path d="M0 0 C10.23 0 20.46 0 31 0 C31 0.99 31 1.98 31 3 C32.32 3.66 33.64 4.32 35 5 C33.96875 4.95875 32.9375 4.9175 31.875 4.875 C28.12141188 4.99608349 25.50641733 5.77683116 22 7 C21.34 6.67 20.68 6.34 20 6 C20 5.34 20 4.68 20 4 C19.14277344 4.15597656 18.28554687 4.31195313 17.40234375 4.47265625 C6.0456942 6.4059754 6.0456942 6.4059754 0 5 C0 3.35 0 1.7 0 0 Z " fill="#FBF7A8" transform="translate(135,42)"/>
<path d="M0 0 C1.12664062 -0.00257812 2.25328125 -0.00515625 3.4140625 -0.0078125 C5.15816406 0.00378906 5.15816406 0.00378906 6.9375 0.015625 C8.10023438 0.00789063 9.26296875 0.00015625 10.4609375 -0.0078125 C11.58757812 -0.00523438 12.71421875 -0.00265625 13.875 0 C14.89464844 0.00225586 15.91429687 0.00451172 16.96484375 0.00683594 C20.20796689 0.2891709 22.8983924 1.1253935 25.9375 2.265625 C25.9375 3.255625 25.9375 4.245625 25.9375 5.265625 C25.0810791 5.26038818 24.2246582 5.25515137 23.34228516 5.24975586 C20.1180039 5.23255679 16.89374629 5.22009917 13.66943359 5.21069336 C12.28270694 5.20571207 10.89598541 5.19892461 9.50927734 5.19018555 C1.59914008 5.14163958 -6.20752199 5.22726949 -14.0625 6.265625 C-13.4375 4.390625 -13.4375 4.390625 -12.0625 2.265625 C-8.00337413 0.44248276 -4.41590378 0.0097697 0 0 Z " fill="#EFE7B8" transform="translate(142.0625,28.734375)"/>
<path d="M0 0 C0.33 0 0.66 0 1 0 C1.80326914 3.55509037 2.14298075 6.88604671 2.2109375 10.52734375 C2.23929688 11.56697266 2.26765625 12.60660156 2.296875 13.67773438 C2.34886061 15.84683404 2.39316097 18.01613182 2.4296875 20.18554688 C2.60177903 25.97570968 3.05817453 29.88056629 6 35 C5.67 35.99 5.34 36.98 5 38 C4.319375 36.7934375 4.319375 36.7934375 3.625 35.5625 C2.25274335 32.91143428 2.25274335 32.91143428 0 32 C0 31.01 0 30.02 0 29 C-1.98 29 -3.96 29 -6 29 C-6.66 30.98 -7.32 32.96 -8 35 C-8.33 34.34 -8.66 33.68 -9 33 C-9.99 32.67 -10.98 32.34 -12 32 C-12.28875 31.030625 -12.5775 30.06125 -12.875 29.0625 C-13.66698157 25.81397168 -13.66698157 25.81397168 -16.4375 24.8125 C-17.283125 24.544375 -18.12875 24.27625 -19 24 C-20.66015625 22.44921875 -20.66015625 22.44921875 -22 21 C-14.72715214 21.47690806 -8.75825393 23.34101485 -2 26 C-1.01 26.33 -0.02 26.66 1 27 C0.67 18.09 0.34 9.18 0 0 Z " fill="#D8CA8D" transform="translate(195,22)"/>
<path d="M0 0 C0.66 0 1.32 0 2 0 C2 0.66 2 1.32 2 2 C2.99 2 3.98 2 5 2 C4.67 3.32 4.34 4.64 4 6 C4.66 6.33 5.32 6.66 6 7 C6 7.99 6 8.98 6 10 C6.99 10.33 7.98 10.66 9 11 C9.33 11.66 9.66 12.32 10 13 C10.845625 12.79375 11.69125 12.5875 12.5625 12.375 C16.53560946 11.94156988 19.24624618 12.7237237 23 14 C23 14.66 23 15.32 23 16 C18.28469752 18.51482799 13.21378734 18.87922215 8 18 C5.375 15.6875 5.375 15.6875 4 13 C4 12.01 4 11.02 4 10 C3.34 10 2.68 10 2 10 C2 9.34 2 8.68 2 8 C0.35 8 -1.3 8 -3 8 C-3.33 9.32 -3.66 10.64 -4 12 C-4 9.69 -4 7.38 -4 5 C-4.66 4.67 -5.32 4.34 -6 4 C-4.02 3.67 -2.04 3.34 0 3 C0 2.01 0 1.02 0 0 Z " fill="#E6AD28" transform="translate(129,102)"/>
<path d="M0 0 C2.475 0.495 2.475 0.495 5 1 C5.75 3.25 5.75 3.25 6 6 C4.1875 8.3125 4.1875 8.3125 2 10 C1.34 10 0.68 10 0 10 C0 10.66 0 11.32 0 12 C-5.78282711 12.639903 -9.84587802 12.65112385 -14.625 9.0625 C-16.6015625 7.41015625 -16.6015625 7.41015625 -18 6 C-18 5.67 -18 5.34 -18 5 C-11.73 4.67 -5.46 4.34 1 4 C0.67 2.68 0.34 1.36 0 0 Z " fill="#A76B11" transform="translate(168,89)"/>
<path d="M0 0 C4.93407508 0.12061072 8.07446055 0.21230685 11.9375 3.5 C16.10896042 6.90527381 19.75405713 6.88595776 25 7 C25 6.34 25 5.68 25 5 C25.66 5.33 26.32 5.66 27 6 C25.96484375 7.4609375 25.96484375 7.4609375 24 9 C21.4551462 9.35321065 19.1137696 9.55650954 16.5625 9.625 C12.5435877 9.78999933 8.87977491 9.95509575 5 11 C2.75 10.5625 2.75 10.5625 1 10 C1 8.68 1 7.36 1 6 C0.34 5.67 -0.32 5.34 -1 5 C-0.67 3.35 -0.34 1.7 0 0 Z " fill="#F6C045" transform="translate(143,94)"/>
<path d="M0 0 C0.66 0 1.32 0 2 0 C2.20674944 5.78898419 1.59162079 10.42932723 0 16 C-0.99 16 -1.98 16 -3 16 C-2.95875 16.928125 -2.9175 17.85625 -2.875 18.8125 C-3 22 -3 22 -5 25 C-7.625 25.6875 -7.625 25.6875 -10 26 C-10 26.99 -10 27.98 -10 29 C-10.66 29 -11.32 29 -12 29 C-12.66 30.32 -13.32 31.64 -14 33 C-14.66 33 -15.32 33 -16 33 C-16.1546875 33.928125 -16.1546875 33.928125 -16.3125 34.875 C-17 37 -17 37 -20 39 C-22.6875 39.125 -22.6875 39.125 -25 39 C-25 38.01 -25 37.02 -25 36 C-23.0625 35.4375 -23.0625 35.4375 -21 35 C-20.67 35.33 -20.34 35.66 -20 36 C-19.566875 35.175 -19.13375 34.35 -18.6875 33.5 C-18.130625 32.675 -17.57375 31.85 -17 31 C-16.01 31 -15.02 31 -14 31 C-13.71125 30.236875 -13.4225 29.47375 -13.125 28.6875 C-12 26 -12 26 -10 23 C-9.34 23 -8.68 23 -8 23 C-7.87625 22.46375 -7.7525 21.9275 -7.625 21.375 C-6.87793984 18.5361714 -5.94696636 15.77776798 -5 13 C-4.34 13 -3.68 13 -3 13 C-3.061875 12.34 -3.12375 11.68 -3.1875 11 C-2.93182247 6.90915946 -1.54304956 3.79333016 0 0 Z " fill="#C2801D" transform="translate(198,80)"/>
<path d="M0 0 C1.258125 -0.020625 2.51625 -0.04125 3.8125 -0.0625 C4.52019531 -0.07410156 5.22789062 -0.08570312 5.95703125 -0.09765625 C8 0 8 0 11 1 C12.1875 4.0625 12.1875 4.0625 13 7 C13.66 7 14.32 7 15 7 C16.11445498 9.22890995 16.16480286 10.53055106 16.1875 13 C16.20167969 13.70125 16.21585938 14.4025 16.23046875 15.125 C16 17 16 17 14 19 C13.4225 17.906875 12.845 16.81375 12.25 15.6875 C10.48399633 12.65657328 9.19369721 10.64000668 6 9 C3.68331389 8.41979239 1.37620133 7.93770953 -0.9765625 7.52734375 C-3 7 -3 7 -5 5 C-4 4 -4 4 -2.0390625 3.8671875 C-1.24242187 3.86976563 -0.44578125 3.87234375 0.375 3.875 C1.16648438 3.87242187 1.95796875 3.86984375 2.7734375 3.8671875 C5 4 5 4 8 5 C8 4.34 8 3.68 8 3 C7.236875 2.87625 6.47375 2.7525 5.6875 2.625 C3 2 3 2 0 0 Z " fill="#F7CD47" transform="translate(160,128)"/>
<path d="M0 0 C4.6914739 1.1313335 7.81286511 1.99690965 10.87890625 5.99609375 C9.87890625 7.99609375 9.87890625 7.99609375 7.75390625 9.05859375 C4.87890625 9.99609375 4.87890625 9.99609375 1.31640625 10.24609375 C-2.35436843 10.67025145 -2.35436843 10.67025145 -4.43359375 13.87109375 C-4.99046875 14.90234375 -5.54734375 15.93359375 -6.12109375 16.99609375 C-6.78109375 17.98609375 -7.44109375 18.97609375 -8.12109375 19.99609375 C-7.86556065 14.13160921 -7.46351804 10.33851804 -3.12109375 5.99609375 C-3.78109375 5.99609375 -4.44109375 5.99609375 -5.12109375 5.99609375 C-5.12109375 2.99609375 -5.12109375 2.99609375 -3.8984375 1.2734375 C-2.12109375 -0.00390625 -2.12109375 -0.00390625 0 0 Z " fill="#F9EA80" transform="translate(167.12109375,46.00390625)"/>
<path d="M0 0 C2.84354739 0.51700862 5.54162253 1.16350869 8.3125 2 C12.25201689 3.06834356 15.94736185 3.57340651 20 4 C20 4.66 20 5.32 20 6 C21.32 5.01 22.64 4.02 24 3 C25.98 3.99 27.96 4.98 30 6 C29.67 9.3 29.34 12.6 29 16 C28.34 16 27.68 16 27 16 C26.731875 15.38125 26.46375 14.7625 26.1875 14.125 C25.04443152 11.7004767 25.04443152 11.7004767 22 10 C22 9.34 22 8.68 22 8 C21.09507812 8.06960937 21.09507812 8.06960937 20.171875 8.140625 C17.72957195 8.25092256 15.4301881 8.28040632 13 8 C11.62437146 6.71034824 10.29233607 5.37310707 9 4 C6.04447173 3.05960464 3.05855742 2.49668881 0 2 C0 1.34 0 0.68 0 0 Z " fill="#262628" transform="translate(162,8)"/>
<path d="M0 0 C0.556875 0.350625 1.11375 0.70125 1.6875 1.0625 C4.53886783 2.21845993 6.08517222 1.80967438 9 1 C9.33 1.99 9.66 2.98 10 4 C9.67 4.66 9.34 5.32 9 6 C10.65 5.67 12.3 5.34 14 5 C14 7.31 14 9.62 14 12 C14.66 12 15.32 12 16 12 C18.29648649 14.5614657 19 15.47967572 19 19 C15.72018787 18.70183526 13.51888242 18.3706303 10.8125 16.4375 C9.09798593 14.13177418 8.47760485 12.61852334 7.625 9.9375 C6.46080532 6.44491597 6.16796772 6.10539151 2.8125 4 C1.884375 3.67 0.95625 3.34 0 3 C0 2.01 0 1.02 0 0 Z " fill="#E89318" transform="translate(111,102)"/>
<path d="M0 0 C1.2065625 0.0309375 1.2065625 0.0309375 2.4375 0.0625 C0.82155168 2.10369788 -0.8481382 4.10322937 -2.5625 6.0625 C-3.2225 6.0625 -3.8825 6.0625 -4.5625 6.0625 C-4.85125 6.825625 -5.14 7.58875 -5.4375 8.375 C-6.5625 11.0625 -6.5625 11.0625 -8.5625 14.0625 C-8.8925 12.7425 -9.2225 11.4225 -9.5625 10.0625 C-12.5325 9.7325 -15.5025 9.4025 -18.5625 9.0625 C-18.665625 9.825625 -18.76875 10.58875 -18.875 11.375 C-19.60614039 14.23309424 -20.33201913 15.21992885 -22.5625 17.0625 C-21.94712614 12.87795774 -20.86416269 9.62891471 -18.5625 6.0625 C-15.90781139 4.82891953 -13.71553524 3.99411658 -10.9375 3.25 C-7.28834852 2.18170751 -3.5688894 0.08704608 0 0 Z " fill="#EFD984" transform="translate(122.5625,43.9375)"/>
<path d="M0 0 C3.96 0 7.92 0 12 0 C13 5 13 5 12.1875 7.25 C11 9 11 9 9 10 C6.0625 10.375 6.0625 10.375 3 10 C-0.05966059 6.43039598 0 4.86822069 0 0 Z " fill="#8B620E" transform="translate(128,63)"/>
<path d="M0 0 C2.02601415 0.02511454 4.05205827 0.04792213 6.078125 0.06835938 C11.01116446 0.12310337 15.94274812 0.20920177 20.875 0.3125 C20.875 0.6425 20.875 0.9725 20.875 1.3125 C19.64869873 1.32708252 18.42239746 1.34166504 17.15893555 1.35668945 C12.61322734 1.41462083 8.06801719 1.49185381 3.52270508 1.57495117 C1.55468829 1.60822486 -0.41342449 1.63624915 -2.3815918 1.65893555 C-5.20923812 1.69243678 -8.03600282 1.74474963 -10.86328125 1.80078125 C-11.74462234 1.80717117 -12.62596344 1.8135611 -13.53401184 1.82014465 C-14.35463608 1.83993881 -15.17526031 1.85973297 -16.02075195 1.88012695 C-17.10330009 1.89678154 -17.10330009 1.89678154 -18.2077179 1.91377258 C-20.65353693 2.42241714 -21.44850847 3.51358907 -23.125 5.3125 C-24.115 5.6425 -25.105 5.9725 -26.125 6.3125 C-25.135 6.9725 -24.145 7.6325 -23.125 8.3125 C-24.115 8.3125 -25.105 8.3125 -26.125 8.3125 C-26.455 9.3025 -26.785 10.2925 -27.125 11.3125 C-28.775 11.3125 -30.425 11.3125 -32.125 11.3125 C-31.795 9.9925 -31.465 8.6725 -31.125 7.3125 C-32.445 8.3025 -33.765 9.2925 -35.125 10.3125 C-35.785 9.9825 -36.445 9.6525 -37.125 9.3125 C-35.25 7.625 -35.25 7.625 -32.125 5.3125 C-31.55910156 4.88066406 -30.99320312 4.44882813 -30.41015625 4.00390625 C-21.27897066 -1.72646534 -10.34855235 -0.22324702 0 0 Z " fill="#7D7D7F" transform="translate(150.125,1.6875)"/>
<path d="M0 0 C-1.32 0.33 -2.64 0.66 -4 1 C-4 1.66 -4 2.32 -4 3 C5.24 3 14.48 3 24 3 C24 3.66 24 4.32 24 5 C17.4 4.67 10.8 4.34 4 4 C3.67 4.99 3.34 5.98 3 7 C-1.96073422 8.32286246 -6.91111512 8.08893197 -12 8 C-12.33 7.01 -12.66 6.02 -13 5 C-12.360625 4.896875 -11.72125 4.79375 -11.0625 4.6875 C-10.381875 4.460625 -9.70125 4.23375 -9 4 C-8.67 3.01 -8.34 2.02 -8 1 C-5.29120665 -0.35439668 -2.99066732 -0.06501451 0 0 Z " fill="#252429" transform="translate(136,3)"/>
<path d="M0 0 C1.10118164 -0.0309375 1.10118164 -0.0309375 2.22460938 -0.0625 C7.45413689 -0.09962176 11.01134339 0.90265586 15.6875 3.25 C15.3575 4.24 15.0275 5.23 14.6875 6.25 C14.3575 5.92 14.0275 5.59 13.6875 5.25 C11.61487924 5.16232888 9.53929706 5.14304127 7.46484375 5.15234375 C5.57475586 5.15717773 5.57475586 5.15717773 3.64648438 5.16210938 C2.30598891 5.17046597 0.96549412 5.17893093 -0.375 5.1875 C-1.71939942 5.1925134 -3.0638006 5.19707658 -4.40820312 5.20117188 C-7.70967941 5.21300512 -11.01106803 5.22949029 -14.3125 5.25 C-13.5625 3.3125 -13.5625 3.3125 -12.3125 1.25 C-8.41417742 -0.2759798 -4.13742181 0.02860793 0 0 Z " fill="#ECDFB2" transform="translate(148.3125,20.75)"/>
<path d="M0 0 C-2 1.33333333 -4 2.66666667 -6 4 C-7.21284876 7.05429073 -7.21284876 7.05429073 -8 10 C-8.66 10 -9.32 10 -10 10 C-9.938125 11.0725 -9.87625 12.145 -9.8125 13.25 C-10.00543309 17.10866187 -10.39665076 18.28817788 -13 21 C-13.99 20.67 -14.98 20.34 -16 20 C-15.34 19.34 -14.68 18.68 -14 18 C-13.31822002 15.34280163 -13.31822002 15.34280163 -12.875 12.375 C-12.70742187 11.37210938 -12.53984375 10.36921875 -12.3671875 9.3359375 C-12.24601563 8.56507813 -12.12484375 7.79421875 -12 7 C-12.66 7 -13.32 7 -14 7 C-14 7.66 -14 8.32 -14 9 C-14.66 8.67 -15.32 8.34 -16 8 C-14.09755718 4.48048079 -12.50762717 2.00435838 -9 0 C-5.37824817 -0.88695963 -3.56435101 -1.188117 0 0 Z " fill="#DEA840" transform="translate(163,142)"/>
<path d="M0 0 C1.02480469 0.0515625 2.04960937 0.103125 3.10546875 0.15625 C4.70068359 0.25292969 4.70068359 0.25292969 6.328125 0.3515625 C7.94654297 0.43664062 7.94654297 0.43664062 9.59765625 0.5234375 C12.25850199 0.66472134 14.91837731 0.81611516 17.578125 0.9765625 C17.578125 1.6365625 17.578125 2.2965625 17.578125 2.9765625 C20.218125 3.3065625 22.858125 3.6365625 25.578125 3.9765625 C25.578125 4.6365625 25.578125 5.2965625 25.578125 5.9765625 C24.340625 5.6465625 23.103125 5.3165625 21.828125 4.9765625 C10.47919495 2.74239367 -2.74237112 2.09537313 -13.328125 7.19921875 C-15.79853423 8.11640427 -16.98159707 7.85839021 -19.421875 6.9765625 C-16.7483213 3.51666948 -13.52178923 3.0554873 -9.421875 1.9765625 C-8.80022461 1.62674316 -8.17857422 1.27692383 -7.53808594 0.91650391 C-4.84709921 -0.27873132 -2.93142786 -0.1628571 0 0 Z " fill="#F0CE5C" transform="translate(144.421875,82.0234375)"/>
<path d="M0 0 C0.33 0 0.66 0 1 0 C1 1.98 1 3.96 1 6 C1.66 6.33 2.32 6.66 3 7 C2.34 10.3 1.68 13.6 1 17 C-8.10714286 16.19642857 -8.10714286 16.19642857 -12 14 C-12 12.35 -12 10.7 -12 9 C-11.443125 9.350625 -10.88625 9.70125 -10.3125 10.0625 C-7.37831087 11.25203613 -5.95411203 11.08835706 -3 10 C-0.78469444 7.0093375 -0.49459952 3.62706314 0 0 Z " fill="#F4D651" transform="translate(174,62)"/>
<path d="M0 0 C0.99 0 1.98 0 3 0 C1.80342444 10.45838121 -5.38586617 20.16560698 -13.25 26.9375 C-15 28 -15 28 -17 28 C-17 25 -17 25 -15.125 22.8125 C-13 21 -13 21 -11 21 C-11 20.01 -11 19.02 -11 18 C-9.35 17.67 -7.7 17.34 -6 17 C-5.34 14.03 -4.68 11.06 -4 8 C-3.01 8 -2.02 8 -1 8 C-1.020625 7.05125 -1.04125 6.1025 -1.0625 5.125 C-1 2 -1 2 0 0 Z " fill="#D2B07C" transform="translate(199,88)"/>
<path d="M0 0 C3.3 0 6.6 0 10 0 C9.34 0.66 8.68 1.32 8 2 C9.60875 2.7734375 9.60875 2.7734375 11.25 3.5625 C15.49599832 5.97402034 16.99626995 8.59179388 19 13 C19 13.99 19 14.98 19 16 C15.7126973 14.90423243 15.37489216 14.41029968 13.4375 11.75 C9.78711468 7.26788132 5.22963665 5.24274931 0 3 C0 2.01 0 1.02 0 0 Z " fill="#7C6613" transform="translate(166,42)"/>
<path d="M0 0 C0.33 0.66 0.66 1.32 1 2 C-0.25 4.625 -0.25 4.625 -2 7 C-2.99 7 -3.98 7 -5 7 C-5.66 8.65 -6.32 10.3 -7 12 C-9 12 -11 12 -13 12 C-13 12.66 -13 13.32 -13 14 C-14.65 13.67 -16.3 13.34 -18 13 C-18 12.34 -18 11.68 -18 11 C-16.68 11 -15.36 11 -14 11 C-13.67 10.01 -13.34 9.02 -13 8 C-12.01 8 -11.02 8 -10 8 C-10 7.01 -10 6.02 -10 5 C-6.7 3.35 -3.4 1.7 0 0 Z " fill="#DA8A10" transform="translate(186,104)"/>
<path d="M0 0 C0.33 0 0.66 0 1 0 C2.15664737 5.48269069 2.11416255 10.80339274 2.0625 16.375 C2.05798828 17.30183594 2.05347656 18.22867188 2.04882812 19.18359375 C2.03711574 21.45579709 2.02071372 23.72786388 2 26 C2.66 26 3.32 26 4 26 C4.33 29.3 4.66 32.6 5 36 C-1.74090369 27.01212842 -1.6593598 15.86675678 -1 5 C-0.70652441 3.32585515 -0.38929201 1.65449105 0 0 Z " fill="#E0BD7E" transform="translate(99,62)"/>
<path d="M0 0 C0.99 0.33 1.98 0.66 3 1 C3 8.92 3 16.84 3 25 C2.34 24.67 1.68 24.34 1 24 C0.34 26.64 -0.32 29.28 -1 32 C-1.33 32 -1.66 32 -2 32 C-1.9278125 31.2471875 -1.855625 30.494375 -1.78125 29.71875 C-1.21537542 23.2426298 -0.89272191 16.81053508 -0.875 10.3125 C-0.87048828 9.61769531 -0.86597656 8.92289063 -0.86132812 8.20703125 C-0.82288206 4.47871264 -0.82288206 4.47871264 -2 1 C-1.34 0.67 -0.68 0.34 0 0 Z " fill="#E5C983" transform="translate(130,120)"/>
<path d="M0 0 C2 2 2 2 2 6 C-3.00658324 8.50329162 -11.18270273 7.76311044 -16.48046875 6.328125 C-18.375 5.5 -18.375 5.5 -21 4 C-21 3.34 -21 2.68 -21 2 C-20.22914063 2.08378906 -19.45828125 2.16757813 -18.6640625 2.25390625 C-17.66117188 2.35574219 -16.65828125 2.45757812 -15.625 2.5625 C-14.62726563 2.66691406 -13.62953125 2.77132812 -12.6015625 2.87890625 C-10.015963 3.21144708 -10.015963 3.21144708 -8 2 C-5.3276379 1.86584528 -2.67749512 1.95681459 0 2 C0 1.34 0 0.68 0 0 Z " fill="#EABE5B" transform="translate(178,118)"/>
<path d="M0 0 C7.59 0 15.18 0 23 0 C23 1.33333333 23 2.66666667 23 4 C14.42 4 5.84 4 -3 4 C-3 3.67 -3 3.34 -3 3 C-1.02 2.67 0.96 2.34 3 2 C2.01 1.34 1.02 0.68 0 0 Z " fill="#747171" transform="translate(138,33)"/>
<path d="M0 0 C0.66 0.33 1.32 0.66 2 1 C1.62875 1.5775 1.2575 2.155 0.875 2.75 C-0.29166667 5 -0.29166667 5 0.875 7.25 C1.24625 7.8275 1.6175 8.405 2 9 C0.35 9 -1.3 9 -3 9 C-3.33 10.32 -3.66 11.64 -4 13 C-4.33 12.67 -4.66 12.34 -5 12 C-5.88873597 15.09950623 -6.18543782 17.98504367 -6.31640625 21.203125 C-6.35830078 22.1828125 -6.40019531 23.1625 -6.44335938 24.171875 C-6.48267578 25.18765625 -6.52199219 26.2034375 -6.5625 27.25 C-6.60568359 28.28125 -6.64886719 29.3125 -6.69335938 30.375 C-6.79925682 32.9165387 -6.90133443 35.45817196 -7 38 C-7.33 38 -7.66 38 -8 38 C-8.08783475 34.0001407 -8.14067102 30.00053296 -8.1875 26 C-8.21263672 24.87464844 -8.23777344 23.74929687 -8.26367188 22.58984375 C-8.33231143 14.76493409 -8.07485719 7.88426884 -2.3125 2 C-1.549375 1.34 -0.78625 0.68 0 0 Z " fill="#707070" transform="translate(111,12)"/>
<path d="M0 0 C0.33 0 0.66 0 1 0 C1.01458252 0.60996826 1.02916504 1.21993652 1.04418945 1.84838867 C1.11894775 4.62871064 1.21551482 7.40786824 1.3125 10.1875 C1.33505859 11.14720703 1.35761719 12.10691406 1.38085938 13.09570312 C1.57675314 18.24236661 1.81267454 21.75023271 5 26 C5.6875 28.8125 5.6875 28.8125 6 31 C6.66 31 7.32 31 8 31 C10 34 10 34 10 37 C8.68 37 7.36 37 6 37 C6 36.01 6 35.02 6 34 C5.01 33.67 4.02 33.34 3 33 C2.67 29.7 2.34 26.4 2 23 C1.34 23 0.68 23 0 23 C0 15.41 0 7.82 0 0 Z " fill="#C28121" transform="translate(101,65)"/>
<path d="M0 0 C0.99 0 1.98 0 3 0 C2.83886719 1.00160156 2.67773438 2.00320312 2.51171875 3.03515625 C1.32108808 12.26027171 1.47059636 21.0627738 4 30 C3.55859375 32.20703125 3.55859375 32.20703125 3 34 C-1.53180302 27.20229547 -2.47277312 18.03714304 -2 10 C-1.34 10 -0.68 10 0 10 C0 6.7 0 3.4 0 0 Z " fill="#F2B324" transform="translate(105,54)"/>
<path d="M0 0 C4.05606165 0.46800711 7.46588679 0.87953208 11 3 C9.783125 3.391875 8.56625 3.78375 7.3125 4.1875 C2.30751746 6.06215777 -0.55574162 9.0208311 -3.6875 13.3125 C-4.3371875 14.1478125 -4.3371875 14.1478125 -5 15 C-5.66 15 -6.32 15 -7 15 C-6.125 9.25 -6.125 9.25 -5 7 C-4.34 7 -3.68 7 -3 7 C-2.566875 6.0409375 -2.566875 6.0409375 -2.125 5.0625 C-1 3 -1 3 1 2 C0.67 1.34 0.34 0.68 0 0 Z " fill="#735A12" transform="translate(123,43)"/>
<path d="M0 0 C0.33 1.32 0.66 2.64 1 4 C1.99 4 2.98 4 4 4 C4 5.32 4 6.64 4 8 C15.55 8.33 27.1 8.66 39 9 C39 9.33 39 9.66 39 10 C28.77 10 18.54 10 8 10 C8 10.99 8 11.98 8 13 C5.36 12.67 2.72 12.34 0 12 C0 11.67 0 11.34 0 11 C1.98 10.67 3.96 10.34 6 10 C4.02 9.34 2.04 8.68 0 8 C0 5.36 0 2.72 0 0 Z " fill="#4F4731" transform="translate(127,32)"/>
<path d="M0 0 C0.66 0.33 1.32 0.66 2 1 C2.40729228 3.32156597 2.74438677 5.6568787 3 8 C0.09907498 9.93395001 -0.89674737 10.30131941 -4.1875 10.625 C-5.445625 10.74875 -6.70375 10.8725 -8 11 C-7.01 12.32 -6.02 13.64 -5 15 C-5.33 15.66 -5.66 16.32 -6 17 C-7.34345985 16.26829419 -8.67460584 15.51394247 -10 14.75 C-10.7425 14.33234375 -11.485 13.9146875 -12.25 13.484375 C-13.11625 12.74960938 -13.11625 12.74960938 -14 12 C-14 10.68 -14 9.36 -14 8 C-9.71 8 -5.42 8 -1 8 C-1.33 6.02 -1.66 4.04 -2 2 C-1.34 1.34 -0.68 0.68 0 0 Z " fill="#EED78E" transform="translate(181,116)"/>
<path d="M0 0 C0.33 0.66 0.66 1.32 1 2 C2.98 2 4.96 2 7 2 C5.33784732 3.33895632 3.67036393 4.67130142 2 6 C1.319375 6.598125 0.63875 7.19625 -0.0625 7.8125 C-2 9 -2 9 -4.25 8.6875 C-4.8275 8.460625 -5.405 8.23375 -6 8 C-6 7.34 -6 6.68 -6 6 C-7.65 6.66 -9.3 7.32 -11 8 C-9.54163185 4.15521125 -7.63541701 2.8177085 -4 1 C-1.6875 0.3125 -1.6875 0.3125 0 0 Z " fill="#F2E684" transform="translate(134,45)"/>
<path d="M0 0 C5.65063193 2.45679649 5.65063193 2.45679649 7.17578125 4.828125 C8.57754844 8.5218812 8.45667734 12.11110699 8 16 C6.8125 18.5625 6.8125 18.5625 5 20 C2.3125 20.25 2.3125 20.25 0 20 C-0.33 19.01 -0.66 18.02 -1 17 C0.65 17 2.3 17 4 17 C4 13.04 4 9.08 4 5 C3.34 5 2.68 5 2 5 C1.34 3.35 0.68 1.7 0 0 Z " fill="#D9BB74" transform="translate(171,130)"/>
<path d="M0 0 C0.66 0 1.32 0 2 0 C2.20674944 5.78898419 1.59162079 10.42932723 0 16 C-0.99 16 -1.98 16 -3 16 C-3.33 17.65 -3.66 19.3 -4 21 C-4.99 21 -5.98 21 -7 21 C-7.33 21.66 -7.66 22.32 -8 23 C-7.21302675 19.58978257 -6.12880057 16.31114834 -5 13 C-4.34 13 -3.68 13 -3 13 C-3.0928125 12.01 -3.0928125 12.01 -3.1875 11 C-2.93182247 6.90915946 -1.54304956 3.79333016 0 0 Z " fill="#D28718" transform="translate(198,80)"/>
<path d="M0 0 C-0.33 1.32 -0.66 2.64 -1 4 C-0.175 3.67 0.65 3.34 1.5 3 C5.5873983 1.83217191 8.76923344 1.8541115 13 2 C13 2.33 13 2.66 13 3 C11.02 3 9.04 3 7 3 C7 3.66 7 4.32 7 5 C5.35 5 3.7 5 2 5 C1.67 5.66 1.34 6.32 1 7 C-0.97888961 7.72693904 -2.97954558 8.39816251 -5 9 C-5 9.66 -5 10.32 -5 11 C-5.99 10.67 -6.98 10.34 -8 10 C-8.6875 7.9375 -8.6875 7.9375 -9 6 C-7.8803014 4.99406757 -6.7540588 3.9954151 -5.625 3 C-4.68527344 2.1646875 -4.68527344 2.1646875 -3.7265625 1.3125 C-2 0 -2 0 0 0 Z " fill="#1D1C20" transform="translate(119,9)"/>
<path d="M0 0 C3.23170499 3.78742145 3.44081271 6.09790241 3.296875 10.94140625 C2.5016696 19.13411455 0.73722143 27.24057231 -2 35 C-2.66 34.67 -3.32 34.34 -4 34 C-3.125 29.125 -3.125 29.125 -2 28 C0.29998553 18.71611681 0.21656292 9.4806434 0 0 Z " fill="#F8A517" transform="translate(196,56)"/>
<path d="M0 0 C0.66 0 1.32 0 2 0 C2 0.66 2 1.32 2 2 C2.99 2 3.98 2 5 2 C4.67 3.32 4.34 4.64 4 6 C4.66 6.33 5.32 6.66 6 7 C6 9.31 6 11.62 6 14 C5.34 13.67 4.68 13.34 4 13 C4 12.01 4 11.02 4 10 C3.34 10 2.68 10 2 10 C2 9.34 2 8.68 2 8 C0.35 8 -1.3 8 -3 8 C-3.33 9.32 -3.66 10.64 -4 12 C-4 9.69 -4 7.38 -4 5 C-4.66 4.67 -5.32 4.34 -6 4 C-4.02 3.67 -2.04 3.34 0 3 C0 2.01 0 1.02 0 0 Z " fill="#F2AD23" transform="translate(129,102)"/>
<path d="M0 0 C0.66 0.33 1.32 0.66 2 1 C1.34 3.64 0.68 6.28 0 9 C0.99 9 1.98 9 3 9 C2.67 10.65 2.34 12.3 2 14 C1.2575 13.649375 0.515 13.29875 -0.25 12.9375 C-3.1322726 11.95490707 -4.21176345 11.9673198 -7 13 C-6.34 11.02 -5.68 9.04 -5 7 C-4.34 7 -3.68 7 -3 7 C-3 6.01 -3 5.02 -3 4 C-2.34 3.67 -1.68 3.34 -1 3 C-0.67 2.01 -0.34 1.02 0 0 Z " fill="#FBDA4C" transform="translate(191,51)"/>
<path d="M0 0 C0.33 0.66 0.66 1.32 1 2 C1.66 2 2.32 2 3 2 C3.33 2.66 3.66 3.32 4 4 C4.66 3.67 5.32 3.34 6 3 C6 3.99 6 4.98 6 6 C6.66 6 7.32 6 8 6 C8.33 5.34 8.66 4.68 9 4 C9.33 4.99 9.66 5.98 10 7 C5.25 8.125 5.25 8.125 3 7 C3 8.32 3 9.64 3 11 C3.66 11.33 4.32 11.66 5 12 C4.01 12.33 3.02 12.66 2 13 C0.68 12.34 -0.64 11.68 -2 11 C-1.34 7.37 -0.68 3.74 0 0 Z " fill="#EED459" transform="translate(110,52)"/>
<path d="M0 0 C0.70833984 0.00193359 1.41667969 0.00386719 2.14648438 0.00585938 C6.91326078 0.0453267 11.49007144 0.34209524 16.1875 1.125 C16.1875 2.115 16.1875 3.105 16.1875 4.125 C9.77432635 4.2507485 9.77432635 4.2507485 7 3.65625 C3.13885823 2.92692322 -0.70554587 2.76290796 -4.625 2.5625 C-5.41326172 2.51931641 -6.20152344 2.47613281 -7.01367188 2.43164062 C-8.94644215 2.32621679 -10.87945026 2.22516906 -12.8125 2.125 C-12.8125 1.795 -12.8125 1.465 -12.8125 1.125 C-8.53494752 0.07845318 -4.37821609 -0.02866933 0 0 Z " fill="#F9F7DF" transform="translate(151.8125,29.875)"/>
<path d="M0 0 C0.91330078 0.01353516 1.82660156 0.02707031 2.76757812 0.04101562 C4.99153259 0.07594685 7.21417952 0.12498414 9.4375 0.1875 C9.4375 0.5175 9.4375 0.8475 9.4375 1.1875 C8.46167969 1.24808594 7.48585937 1.30867188 6.48046875 1.37109375 C4.57201172 1.49677734 4.57201172 1.49677734 2.625 1.625 C1.36042969 1.70621094 0.09585938 1.78742188 -1.20703125 1.87109375 C-4.55431893 2.05934547 -4.55431893 2.05934547 -7.5625 3.1875 C-7.8925 2.8575 -8.2225 2.5275 -8.5625 2.1875 C-8.8925 2.8475 -9.2225 3.5075 -9.5625 4.1875 C-8.5725 4.5175 -7.5825 4.8475 -6.5625 5.1875 C-10.8525 5.1875 -15.1425 5.1875 -19.5625 5.1875 C-19.5625 4.5275 -19.5625 3.8675 -19.5625 3.1875 C-12.90040346 0.47806413 -7.15251924 -0.20465756 0 0 Z " fill="#F6EFD5" transform="translate(150.5625,86.8125)"/>
<path d="M0 0 C0.66 0.33 1.32 0.66 2 1 C1.67 2.98 1.34 4.96 1 7 C0.34 7 -0.32 7 -1 7 C-1.33 7.99 -1.66 8.98 -2 10 C-5.23833582 11.87103847 -8.31985875 13.29228053 -12 14 C-11.67 13.01 -11.34 12.02 -11 11 C-10.34 11 -9.68 11 -9 11 C-9 10.34 -9 9.68 -9 9 C-7.35 9 -5.7 9 -4 9 C-4.020625 8.05125 -4.04125 7.1025 -4.0625 6.125 C-4 3 -4 3 -3 1 C-2.01 0.67 -1.02 0.34 0 0 Z " fill="#F49F18" transform="translate(188,95)"/>
<path d="M0 0 C0.99 0 1.98 0 3 0 C4.91872982 11.23827464 6.21626086 21.82048365 3 33 C2.01 33.66 1.02 34.32 0 35 C0.13277344 34.42636719 0.26554688 33.85273437 0.40234375 33.26171875 C2.34613965 23.91163481 2.62534608 14.51423778 3 5 C2.34 5 1.68 5 1 5 C0.67 3.35 0.34 1.7 0 0 Z " fill="#F4B630" transform="translate(192,51)"/>
<path d="M0 0 C0.886875 0.226875 1.77375 0.45375 2.6875 0.6875 C4.6871441 0.72522913 6.68804061 0.73399906 8.6875 0.6875 C8.6875 1.3475 8.6875 2.0075 8.6875 2.6875 C6.0475 3.0175 3.4075 3.3475 0.6875 3.6875 C0.3575 4.6775 0.0275 5.6675 -0.3125 6.6875 C-3.875 7.875 -3.875 7.875 -7.3125 8.6875 C-4.62232659 -0.62463873 -4.62232659 -0.62463873 0 0 Z " fill="#DEC67C" transform="translate(135.3125,24.3125)"/>
<path d="M0 0 C1.7015625 0.4640625 1.7015625 0.4640625 3.4375 0.9375 C4.0975 2.2575 4.7575 3.5775 5.4375 4.9375 C0.4875 6.4225 0.4875 6.4225 -4.5625 7.9375 C-4.5625 7.2775 -4.5625 6.6175 -4.5625 5.9375 C-5.2225 5.9375 -5.8825 5.9375 -6.5625 5.9375 C-6.5625 2.9375 -6.5625 2.9375 -5.5 1.1875 C-3.5625 -0.0625 -3.5625 -0.0625 0 0 Z " fill="#FAF187" transform="translate(168.5625,46.0625)"/>
<path d="M0 0 C0.33 0.66 0.66 1.32 1 2 C1.66 2 2.32 2 3 2 C3.33 1.34 3.66 0.68 4 0 C7.3 0.66 10.6 1.32 14 2 C13.67 2.66 13.34 3.32 13 4 C10.26953125 4.5625 10.26953125 4.5625 6.8125 5 C2.3031663 5.57719471 -1.72366468 6.44260929 -6 8 C-6.33 7.01 -6.66 6.02 -7 5 C-4.525 5.495 -4.525 5.495 -2 6 C-2 5.34 -2 4.68 -2 4 C-1.34 4 -0.68 4 0 4 C-0.33 3.01 -0.66 2.02 -1 1 C-0.67 0.67 -0.34 0.34 0 0 Z " fill="#1E140C" transform="translate(120,39)"/>
<path d="M0 0 C2.25830495 0.30110733 3.84751609 0.91061288 5.8125 2.0625 C7.80630011 5.31554229 6.66025532 8.33858411 6 12 C4.35 12.66 2.7 13.32 1 14 C0.67 13.01 0.34 12.02 0 11 C0.515625 10.608125 1.03125 10.21625 1.5625 9.8125 C3.28448823 8.05008282 3.28448823 8.05008282 2.875 5.4375 C2.15610832 2.6738389 2.15610832 2.6738389 -1 1 C-0.67 0.67 -0.34 0.34 0 0 Z " fill="#F3BC47" transform="translate(170,87)"/>
<path d="M0 0 C3.465 1.485 3.465 1.485 7 3 C6.67 6.3 6.34 9.6 6 13 C5.34 13 4.68 13 4 13 C3.731875 12.38125 3.46375 11.7625 3.1875 11.125 C2.04443152 8.7004767 2.04443152 8.7004767 -1 7 C-1 6.34 -1 5.68 -1 5 C-0.01 4.34 0.98 3.68 2 3 C1.34 2.67 0.68 2.34 0 2 C0 1.34 0 0.68 0 0 Z " fill="#1F1F20" transform="translate(185,11)"/>
<path d="M0 0 C0.66 0.33 1.32 0.66 2 1 C1.01 3.31 0.02 5.62 -1 8 C-1.66 8 -2.32 8 -3 8 C-2.938125 9.0725 -2.87625 10.145 -2.8125 11.25 C-3.00543309 15.10866187 -3.39665076 16.28817788 -6 19 C-6.99 18.67 -7.98 18.34 -9 18 C-8.34 17.34 -7.68 16.68 -7 16 C-6.54188325 14.02764667 -6.54188325 14.02764667 -6.375 11.875 C-6.25125 10.59625 -6.1275 9.3175 -6 8 C-5.34 8 -4.68 8 -4 8 C-4 7.01 -4 6.02 -4 5 C-3.34 5 -2.68 5 -2 5 C-1.855625 4.360625 -1.71125 3.72125 -1.5625 3.0625 C-1 1 -1 1 0 0 Z " fill="#C99840" transform="translate(156,144)"/>
<path d="M0 0 C-1 1 -1 1 -3.28515625 1.09765625 C-4.65994141 1.08025391 -4.65994141 1.08025391 -6.0625 1.0625 C-6.98160156 1.05347656 -7.90070313 1.04445313 -8.84765625 1.03515625 C-9.55792969 1.02355469 -10.26820313 1.01195313 -11 1 C-10.24849977 4.27773504 -10.24849977 4.27773504 -7 6 C-12.42310905 5.56615128 -15.70144056 4.35497322 -20 1 C-20 0.67 -20 0.34 -20 0 C-17.41703983 -0.19522373 -14.83395921 -0.38144403 -12.25 -0.5625 C-11.52039063 -0.61857422 -10.79078125 -0.67464844 -10.0390625 -0.73242188 C-6.45046349 -0.97709908 -3.44972775 -0.99666259 0 0 Z " fill="#8D590D" transform="translate(170,94)"/>
<path d="M0 0 C0 0.66 0 1.32 0 2 C0.66 2.33 1.32 2.66 2 3 C0.79296875 4.51953125 0.79296875 4.51953125 -1 6 C-3.26171875 6.07421875 -3.26171875 6.07421875 -5.6875 5.6875 C-6.49574219 5.56761719 -7.30398437 5.44773437 -8.13671875 5.32421875 C-8.75160156 5.21722656 -9.36648437 5.11023437 -10 5 C-10 4.01 -10 3.02 -10 2 C-3.375 -1.125 -3.375 -1.125 0 0 Z " fill="#FDEB6B" transform="translate(138,57)"/>
<path d="M0 0 C10.23 0 20.46 0 31 0 C31 0.99 31 1.98 31 3 C32.32 3.66 33.64 4.32 35 5 C29.25 5.125 29.25 5.125 27 4 C27 3.34 27 2.68 27 2 C14.13 1.505 14.13 1.505 1 1 C0.67 1.66 0.34 2.32 0 3 C0 2.01 0 1.02 0 0 Z " fill="#DCD69F" transform="translate(135,42)"/>
<path d="M0 0 C0.51046875 0.2165625 1.0209375 0.433125 1.546875 0.65625 C1.216875 1.31625 0.886875 1.97625 0.546875 2.65625 C-0.443125 2.346875 -1.433125 2.0375 -2.453125 1.71875 C-9.28282702 -0.02579345 -16.44290019 -0.02046293 -23.453125 -0.34375 C-16.37321614 -4.5647883 -7.3251557 -2.80537878 0 0 Z " fill="#AA9355" transform="translate(167.453125,87.34375)"/>
<path d="M0 0 C1.65 0.33 3.3 0.66 5 1 C5.19118486 5.77962147 4.98834962 9.60470084 3 14 C2.01 14.33 1.02 14.66 0 15 C-0.33 15.66 -0.66 16.32 -1 17 C-1.99 16.67 -2.98 16.34 -4 16 C-4 15.34 -4 14.68 -4 14 C-2.35 13.34 -0.7 12.68 1 12 C-0.98 12 -2.96 12 -5 12 C-5 11.67 -5 11.34 -5 11 C-1.535 10.505 -1.535 10.505 2 10 C2.33 7.36 2.66 4.72 3 2 C2.01 1.34 1.02 0.68 0 0 Z " fill="#EACD51" transform="translate(137,62)"/>
<path d="M0 0 C2.6875 0.3125 2.6875 0.3125 5 1.8125 C7.44907308 5.44075641 6.97560652 7.99090225 6.6875 12.3125 C6.3575 12.3125 6.0275 12.3125 5.6875 12.3125 C4.6875 9.3125 3.6875 6.3125 2.6875 3.3125 C-0.85768884 4.71009905 -0.85768884 4.71009905 -4.3125 6.3125 C-3.25852273 0.44034091 -3.25852273 0.44034091 0 0 Z " fill="#8B6614" transform="translate(167.3125,55.6875)"/>
<path d="M0 0 C11.88 0 23.76 0 36 0 C36.495 1.485 36.495 1.485 37 3 C36.16194824 2.84152588 35.32389648 2.68305176 34.46044922 2.51977539 C30.82324292 1.97345027 27.30876466 1.78992294 23.6328125 1.68359375 C22.95322479 1.66281265 22.27363708 1.64203156 21.57345581 1.62062073 C19.42406334 1.5557637 17.2745593 1.49654059 15.125 1.4375 C13.6588431 1.39425388 12.19269706 1.35063775 10.7265625 1.30664062 C7.15115725 1.20014896 3.57562963 1.09870591 0 1 C0 0.67 0 0.34 0 0 Z " fill="#181404" transform="translate(135,40)"/>
<path d="M0 0 C0.99 0 1.98 0 3 0 C3 0.66 3 1.32 3 2 C3.66 2.33 4.32 2.66 5 3 C3.71034824 4.37562854 2.37310707 5.70766393 1 7 C0.34 7 -0.32 7 -1 7 C-1 6.34 -1 5.68 -1 5 C-1.99 5.33 -2.98 5.66 -4 6 C-4.66 5.01 -5.32 4.02 -6 3 C-6.99 2.67 -7.98 2.34 -9 2 C-8 1 -8 1 -5.0625 0.875 C-2 1 -2 1 0 2 C0 1.34 0 0.68 0 0 Z " fill="#F1BC3F" transform="translate(134,94)"/>
<path d="M0 0 C0.33 0 0.66 0 1 0 C1 3.63 1 7.26 1 11 C1.99 11 2.98 11 4 11 C4 13.97 4 16.94 4 20 C3.01 20 2.02 20 1 20 C-0.05619003 15.71702469 -0.11702092 11.57014354 -0.0625 7.1875 C-0.05798828 6.49462891 -0.05347656 5.80175781 -0.04882812 5.08789062 C-0.03713156 3.39188932 -0.01919924 1.69593297 0 0 Z " fill="#FCC02F" transform="translate(106,61)"/>
<path d="M0 0 C0 0.66 0 1.32 0 2 C-0.99 2 -1.98 2 -3 2 C-3 5.3 -3 8.6 -3 12 C-3.99 12.33 -4.98 12.66 -6 13 C-6.66 13.99 -7.32 14.98 -8 16 C-8.49196648 10.09640219 -7.31411786 5.95908147 -4 1 C-2 0 -2 0 0 0 Z " fill="#D9A342" transform="translate(108,52)"/>
<path d="M0 0 C0 0.66 0 1.32 0 2 C-0.99 2 -1.98 2 -3 2 C-3.33 3.32 -3.66 4.64 -4 6 C-5.98 6 -7.96 6 -10 6 C-10.103125 6.763125 -10.20625 7.52625 -10.3125 8.3125 C-11.04364039 11.17059424 -11.76951913 12.15742885 -14 14 C-13.38583407 9.82367169 -12.37081572 6.51798462 -10 3 C-6.86154194 1.27642057 -3.60597999 0 0 0 Z " fill="#DCBB7B" transform="translate(114,47)"/>
<path d="M0 0 C0.66 0 1.32 0 2 0 C1.88610125 1.79240663 1.75852313 3.58394835 1.625 5.375 C1.55539063 6.37273437 1.48578125 7.37046875 1.4140625 8.3984375 C1 11 1 11 -1 13 C-4.125 12.625 -4.125 12.625 -7 12 C-6.21625 11.319375 -5.4325 10.63875 -4.625 9.9375 C-1.54149479 6.48691084 -0.95642485 4.43433338 0 0 Z " fill="#E6A235" transform="translate(149,149)"/>
<path d="M0 0 C6.40166927 0.36932707 6.40166927 0.36932707 9.3125 3.4375 C10.1478125 4.7059375 10.1478125 4.7059375 11 6 C11.66 6.66 12.32 7.32 13 8 C13 8.99 13 9.98 13 11 C9.13322435 9.533292 7.99014441 7.52798328 6 4 C5.34 3.67 4.68 3.34 4 3 C4 2.34 4 1.68 4 1 C2.35 1.33 0.7 1.66 -1 2 C-0.67 1.34 -0.34 0.68 0 0 Z " fill="#F6C348" transform="translate(161,136)"/>
<path d="M0 0 C3.3 0 6.6 0 10 0 C9.34 0.66 8.68 1.32 8 2 C8.99 2.99 9.98 3.98 11 5 C7.44706507 6.14947895 6.20023331 6.0868937 2.6875 4.5625 C1.800625 4.046875 0.91375 3.53125 0 3 C0 2.01 0 1.02 0 0 Z " fill="#5A4616" transform="translate(166,42)"/>
<path d="M0 0 C-0.08436933 2.86855713 -0.58692181 4.55682315 -2.5546875 6.66796875 C-7.51440024 11 -7.51440024 11 -10 11 C-10 8 -10 8 -8.125 5.8125 C-6 4 -6 4 -4 4 C-4 3.01 -4 2.02 -4 1 C-2 0 -2 0 0 0 Z " fill="#BC9155" transform="translate(192,105)"/>
<path d="M0 0 C5.66442374 0.36504064 10.00703705 1.0554321 15 4 C15 4.33 15 4.66 15 5 C8.63544353 5.50916452 4.94875005 5.18740389 0 1 C0 0.67 0 0.34 0 0 Z " fill="#D4C89A" transform="translate(173,43)"/>
<path d="M0 0 C1.65 0.33 3.3 0.66 5 1 C5.33 2.65 5.66 4.3 6 6 C1.60546875 10.00390625 1.60546875 10.00390625 0 11 C-0.99 10.67 -1.98 10.34 -3 10 C-2.34 10 -1.68 10 -1 10 C-1 9.34 -1 8.68 -1 8 C-1.66 7.67 -2.32 7.34 -3 7 C-1.02 6.34 0.96 5.68 3 5 C2.2236068 1.9254644 2.2236068 1.9254644 0 0 Z " fill="#976009" transform="translate(168,89)"/>
<path d="M0 0 C0.33 0 0.66 0 1 0 C1.10957031 0.68964844 1.21914062 1.37929687 1.33203125 2.08984375 C2.26924146 7.64452863 3.44274359 12.78136407 5.51171875 18.02734375 C6.08850368 20.35755485 5.75066929 21.74799213 5 24 C0.46819698 17.20229547 -0.47277312 8.03714304 0 0 Z " fill="#F5AA1E" transform="translate(103,64)"/>
<path d="M0 0 C7.42857143 -0.28571429 7.42857143 -0.28571429 11 2 C11 2.33 11 2.66 11 3 C4.4 3 -2.2 3 -9 3 C-9 2.67 -9 2.34 -9 2 C-6.03 2 -3.06 2 0 2 C0 1.34 0 0.68 0 0 Z " fill="#F6EED2" transform="translate(150,21)"/>
<path d="M0 0 C1.65 1.65 3.3 3.3 5 5 C4.01 5.495 4.01 5.495 3 6 C3 5.34 3 4.68 3 4 C1.68 4 0.36 4 -1 4 C-1 4.66 -1 5.32 -1 6 C-1.99 5.67 -2.98 5.34 -4 5 C-4.66 5.66 -5.32 6.32 -6 7 C-6.66 6.01 -7.32 5.02 -8 4 C-5.36 2.68 -2.72 1.36 0 0 Z " fill="#F1E067" transform="translate(178,52)"/>
<path d="M0 0 C2.8692842 0.46845456 4.36961744 0.43215166 7.0625 -0.5 C4.8125 2.0625 4.8125 2.0625 2.0625 4.5 C-0.25 4.3125 -0.25 4.3125 -1.9375 3.5 C-1.9375 2.84 -1.9375 2.18 -1.9375 1.5 C-3.5875 2.16 -5.2375 2.82 -6.9375 3.5 C-6.6075 2.51 -6.2775 1.52 -5.9375 0.5 C-2.9375 -0.5 -2.9375 -0.5 0 0 Z " fill="#FCEF85" transform="translate(129.9375,49.5)"/>
<path d="M0 0 C0.66 0.33 1.32 0.66 2 1 C2.40729228 3.32156597 2.74438677 5.6568787 3 8 C0 10 0 10 -3 10 C-3 9.34 -3 8.68 -3 8 C-2.34 8 -1.68 8 -1 8 C-1.20625 7.05125 -1.4125 6.1025 -1.625 5.125 C-1.74875 4.09375 -1.8725 3.0625 -2 2 C-1.34 1.34 -0.68 0.68 0 0 Z " fill="#DDC593" transform="translate(181,116)"/>
<path d="M0 0 C0.33 0.66 0.66 1.32 1 2 C1.66 2 2.32 2 3 2 C3.05386629 4.12472576 3.09273071 6.24983652 3.125 8.375 C3.14820313 9.55835938 3.17140625 10.74171875 3.1953125 11.9609375 C3 15 3 15 1 17 C0.85714286 9.57142857 0.85714286 9.57142857 2 6 C1.01 6 0.02 6 -1 6 C-0.67 4.02 -0.34 2.04 0 0 Z " fill="#FDCD37" transform="translate(192,54)"/>
<path d="M0 0 C4.4214664 1.38960373 7.11871539 3.35602241 10 7 C9.8125 9.8125 9.8125 9.8125 9 12 C8.443125 11.278125 7.88625 10.55625 7.3125 9.8125 C5.0270024 6.92913577 5.0270024 6.92913577 2.25 4.3125 C0 2 0 2 0 0 Z " fill="#E5AF33" transform="translate(166,135)"/>
<path d="M0 0 C-1.39332574 3.36720387 -2.9789286 4.9859524 -6 7 C-6.99 5.35 -7.98 3.7 -9 2 C-5.5647952 -0.29013653 -4.014669 -0.17842973 0 0 Z " fill="#1F121A" transform="translate(173,22)"/>
<path d="M0 0 C2 1.8125 2 1.8125 4 4 C4 4.99 4 5.98 4 7 C-1.53846154 6.38461538 -1.53846154 6.38461538 -3.875 4.4375 C-4.24625 3.963125 -4.6175 3.48875 -5 3 C-3.35 2.67 -1.7 2.34 0 2 C0 1.34 0 0.68 0 0 Z " fill="#C38F42" transform="translate(126,114)"/>
<path d="M0 0 C0.33 0 0.66 0 1 0 C1.33 0.99 1.66 1.98 2 3 C1.01 3.99 0.02 4.98 -1 6 C-1.61875 5.649375 -2.2375 5.29875 -2.875 4.9375 C-3.926875 4.4734375 -3.926875 4.4734375 -5 4 C-5.99 4.495 -5.99 4.495 -7 5 C-7.33 3.68 -7.66 2.36 -8 1 C-5.28649727 -0.35675137 -2.99939032 -0.06381682 0 0 Z " fill="#9F6B1F" transform="translate(136,66)"/>
<path d="M0 0 C3.40155189 4.53540252 3.40155189 4.53540252 3.3125 9.125 C3.30863281 9.99382812 3.30476562 10.86265625 3.30078125 11.7578125 C3 14 3 14 1 16 C0.67 10.72 0.34 5.44 0 0 Z " fill="#EEA522" transform="translate(196,56)"/>
<path d="M0 0 C1.65 0.33 3.3 0.66 5 1 C3.68 1.33 2.36 1.66 1 2 C1 4.97 1 7.94 1 11 C0.34 9.68 -0.32 8.36 -1 7 C-1.66 7 -2.32 7 -3 7 C-3 5.35 -3 3.7 -3 2 C-2.01 2 -1.02 2 0 2 C0 1.34 0 0.68 0 0 Z " fill="#FBEA86" transform="translate(114,47)"/>
<path d="M0 0 C0.78375 0.04125 1.5675 0.0825 2.375 0.125 C1.77171875 0.31835938 1.1684375 0.51171875 0.546875 0.7109375 C-2.63172512 2.78045772 -3.13021969 5.22312246 -4.375 8.75 C-4.80296875 9.93851563 -5.2309375 11.12703125 -5.671875 12.3515625 C-5.98640625 13.26679688 -6.3009375 14.18203125 -6.625 15.125 C-6.955 15.125 -7.285 15.125 -7.625 15.125 C-7.625 12.815 -7.625 10.505 -7.625 8.125 C-6.965 8.125 -6.305 8.125 -5.625 8.125 C-5.50125 7.17625 -5.3775 6.2275 -5.25 5.25 C-4.48692817 1.43464086 -4.00350056 0.19064288 0 0 Z " fill="#ECD6A6" transform="translate(160.625,143.875)"/>
<path d="M0 0 C-0.78375 0.556875 -1.5675 1.11375 -2.375 1.6875 C-6.36723143 5.20446578 -7.12304882 8.88445146 -8 14 C-8.33 14 -8.66 14 -9 14 C-9.07654536 9.48382401 -9.10228696 5.40914783 -8 1 C-5.07175348 0.02391783 -3.04386724 -0.08226668 0 0 Z " fill="#FAD554" transform="translate(143,122)"/>
<path d="M0 0 C0.66 0 1.32 0 2 0 C2.309375 0.9590625 2.309375 0.9590625 2.625 1.9375 C3.89538209 4.34925077 3.89538209 4.34925077 7.125 4.75 C8.07375 4.8325 9.0225 4.915 10 5 C10 5.66 10 6.32 10 7 C7.69 7.33 5.38 7.66 3 8 C0 1.125 0 1.125 0 0 Z " fill="#D79918" transform="translate(134,112)"/>
<path d="M0 0 C2.475 0.495 2.475 0.495 5 1 C5 1.66 5 2.32 5 3 C5.99 3.33 6.98 3.66 8 4 C9.25 6.375 9.25 6.375 10 9 C9.67 9.99 9.34 10.98 9 12 C8.54625 11.195625 8.0925 10.39125 7.625 9.5625 C6.25274335 6.91143428 6.25274335 6.91143428 4 6 C4 5.01 4 4.02 4 3 C3.01 3 2.02 3 1 3 C0.67 2.01 0.34 1.02 0 0 Z " fill="#D3B076" transform="translate(191,48)"/>
<path d="M0 0 C2 0 4 0 6 0 C6 0.66 6 1.32 6 2 C7.32 2.33 8.64 2.66 10 3 C8.081875 3.4640625 8.081875 3.4640625 6.125 3.9375 C3.89898325 4.47605244 2.05260001 4.9737 0 6 C-0.38218767 4.34385343 -0.71395102 2.67542976 -1 1 C-0.67 0.67 -0.34 0.34 0 0 Z " fill="#F2E36C" transform="translate(122,51)"/>
<path d="M0 0 C5.61 0 11.22 0 17 0 C17 0.33 17 0.66 17 1 C10.97767819 2.46619907 6.09632423 3.32528788 0 2 C0 1.34 0 0.68 0 0 Z " fill="#FDF899" transform="translate(135,45)"/>
<path d="M0 0 C4.29942535 0.47771393 6.2935135 1.61689187 9 5 C9.75 7.25 9.75 7.25 10 9 C6.04322598 7.32598022 3.15535787 4.86850715 0 2 C0 1.34 0 0.68 0 0 Z " fill="#C59D5B" transform="translate(111,108)"/>
<path d="M0 0 C0.33 0 0.66 0 1 0 C1.33 6.93 1.66 13.86 2 21 C1.01 21 0.02 21 -1 21 C-0.67 14.07 -0.34 7.14 0 0 Z " fill="#EEC151" transform="translate(133,128)"/>
<path d="M0 0 C1.65 0 3.3 0 5 0 C4.01 0.33 3.02 0.66 2 1 C2 1.66 2 2.32 2 3 C2.66 3 3.32 3 4 3 C6 6 6 6 5.625 8.1875 C5.41875 8.785625 5.2125 9.38375 5 10 C1.32769295 6.92000054 0.43197635 4.7517398 0 0 Z " fill="#F7BE41" transform="translate(126,110)"/>
<path d="M0 0 C0.66 0.33 1.32 0.66 2 1 C2 1.66 2 2.32 2 3 C2.66 3 3.32 3 4 3 C4.33 5.31 4.66 7.62 5 10 C3.02 8.35 1.04 6.7 -1 5 C-0.34 4.67 0.32 4.34 1 4 C0.67 2.68 0.34 1.36 0 0 Z " fill="#F1C046" transform="translate(171,132)"/>
<path d="M0 0 C1.05960938 0.00676758 1.05960938 0.00676758 2.140625 0.01367188 C3.88545275 0.02546125 5.630237 0.04339676 7.375 0.0625 C7.375 0.3925 7.375 0.7225 7.375 1.0625 C6.52035156 1.11148438 5.66570312 1.16046875 4.78515625 1.2109375 C3.68042969 1.28570312 2.57570312 1.36046875 1.4375 1.4375 C0.33535156 1.50710937 -0.76679688 1.57671875 -1.90234375 1.6484375 C-3.25005859 1.85339844 -3.25005859 1.85339844 -4.625 2.0625 C-4.955 2.7225 -5.285 3.3825 -5.625 4.0625 C-5.625 3.4025 -5.625 2.7425 -5.625 2.0625 C-6.945 1.7325 -8.265 1.4025 -9.625 1.0625 C-6.55966836 -0.47016582 -3.35745728 -0.04026471 0 0 Z " fill="#AC8F4E" transform="translate(140.625,91.9375)"/>
<path d="M0 0 C4.16138263 -0.08159574 7.9472484 0.01751476 12 1 C11.67 1.66 11.34 2.32 11 3 C9.741875 3.020625 8.48375 3.04125 7.1875 3.0625 C6.47980469 3.07410156 5.77210938 3.08570313 5.04296875 3.09765625 C3 3 3 3 0 2 C0 1.34 0 0.68 0 0 Z " fill="#E9BF35" transform="translate(157,133)"/>
<path d="M0 0 C0.33 0.66 0.66 1.32 1 2 C-0.62719177 5.25438355 -3.73080811 5.70359632 -7 7 C-7.99 7.33 -8.98 7.66 -10 8 C-10 7.01 -10 6.02 -10 5 C-6.7 3.35 -3.4 1.7 0 0 Z " fill="#E89514" transform="translate(186,104)"/>
<path d="M0 0 C0.66 0 1.32 0 2 0 C2 0.99 2 1.98 2 3 C2.66 3 3.32 3 4 3 C6 6 6 6 6 9 C4.68 9 3.36 9 2 9 C1.34 6.03 0.68 3.06 0 0 Z " fill="#CD8214" transform="translate(105,93)"/>
<path d="M0 0 C0.99 0.33 1.98 0.66 3 1 C3 1.66 3 2.32 3 3 C-3.93 3 -10.86 3 -18 3 C-18 2.67 -18 2.34 -18 2 C-12.06 2 -6.12 2 0 2 C0 1.34 0 0.68 0 0 Z " fill="#DDC39F" transform="translate(166,90)"/>
<path d="M0 0 C0.99 0.495 0.99 0.495 2 1 C3.28317892 4.84953676 3.06643637 7.94738135 3 12 C1 11 1 11 0 8 C-0.12781786 5.32605036 -0.04391871 2.67904143 0 0 Z " fill="#ED9A10" transform="translate(103,75)"/>
<path d="M0 0 C1.32 0.33 2.64 0.66 4 1 C2.68 3.31 1.36 5.62 0 8 C-0.66 8 -1.32 8 -2 8 C-1.125 2.25 -1.125 2.25 0 0 Z " fill="#816717" transform="translate(118,50)"/>
<path d="M0 0 C2.62113708 0 4.50935112 0.31292445 7 1 C4.42595029 4.86107457 2.38979741 4.94319692 -2 6 C-1.34 4.02 -0.68 2.04 0 0 Z " fill="#C8B25F" transform="translate(130,27)"/>
<path d="M0 0 C1.258125 -0.020625 2.51625 -0.04125 3.8125 -0.0625 C4.52019531 -0.07410156 5.22789062 -0.08570312 5.95703125 -0.09765625 C8 0 8 0 11 1 C11 1.99 11 2.98 11 4 C7.0507432 3.44894091 3.65079826 2.61064629 0 1 C0 0.67 0 0.34 0 0 Z " fill="#E0B839" transform="translate(160,128)"/>
<path d="M0 0 C0.33 0 0.66 0 1 0 C1.33 1.65 1.66 3.3 2 5 C2.66 5 3.32 5 4 5 C4 5.99 4 6.98 4 8 C4.66 8.33 5.32 8.66 6 9 C3 10 3 10 0.8125 9.0625 C0.214375 8.711875 -0.38375 8.36125 -1 8 C-0.67 5.36 -0.34 2.72 0 0 Z " fill="#F9DC48" transform="translate(109,55)"/>
<path d="M0 0 C4.95 0.99 4.95 0.99 10 2 C10 2.99 10 3.98 10 5 C6.44219804 4.39009109 3.3171411 3.4216319 0 2 C0 1.34 0 0.68 0 0 Z " fill="#DDB934" transform="translate(157,120)"/>
<path d="M0 0 C1.32 0.66 2.64 1.32 4 2 C3.4375 3.9375 3.4375 3.9375 2 6 C-2.81534987 7.24842404 -4.46100207 7.26949896 -9 5 C-5.7 4.67 -2.4 4.34 1 4 C0.67 2.68 0.34 1.36 0 0 Z " fill="#9B6A1F" transform="translate(168,90)"/>
<path d="M0 0 C0.66 0.33 1.32 0.66 2 1 C1.62875 1.5775 1.2575 2.155 0.875 2.75 C-0.29166667 5 -0.29166667 5 0.875 7.25 C1.24625 7.8275 1.6175 8.405 2 9 C0.35 9 -1.3 9 -3 9 C-3.36923077 3.46153846 -3.36923077 3.46153846 -1.5 1.125 C-1.005 0.75375 -0.51 0.3825 0 0 Z " fill="#3A3A3A" transform="translate(111,12)"/>
<path d="M0 0 C4.16138263 -0.08159574 7.9472484 0.01751476 12 1 C12 1.33 12 1.66 12 2 C8.37 2.66 4.74 3.32 1 4 C0.67 2.68 0.34 1.36 0 0 Z " fill="#F8BA41" transform="translate(166,118)"/>
<path d="M0 0 C0.99 0 1.98 0 3 0 C2.46884894 4.51478398 0.63379708 7.34666857 -2 11 C-2.33 10.34 -2.66 9.68 -3 9 C-2.34 8.01 -1.68 7.02 -1 6 C-0.60986284 4.0103005 -0.26797351 2.00980131 0 0 Z " fill="#CAA76B" transform="translate(195,96)"/>
<path d="M0 0 C-0.99 0.495 -0.99 0.495 -2 1 C-1.34 1.66 -0.68 2.32 0 3 C-2.97 3 -5.94 3 -9 3 C-9 2.34 -9 1.68 -9 1 C-5.57367167 -0.61798838 -3.61944899 -1.34053666 0 0 Z " fill="#EFDDB2" transform="translate(140,89)"/>
<path d="M0 0 C3.63 0 7.26 0 11 0 C11 0.66 11 1.32 11 2 C8.00468461 2.99843846 6.82744268 3.00732761 3.8125 2.5625 C2.554375 2.376875 1.29625 2.19125 0 2 C0 1.34 0 0.68 0 0 Z " fill="#FBE373" transform="translate(128,60)"/>
<path d="M0 0 C2.61973266 2.61973266 2.70813314 4.35166422 3 8 C2.015625 10.1953125 2.015625 10.1953125 1 12 C0.63896464 10.18885568 0.28634496 8.37603177 -0.0625 6.5625 C-0.25972656 5.55316406 -0.45695313 4.54382812 -0.66015625 3.50390625 C-0.77230469 2.67761719 -0.88445312 1.85132813 -1 1 C-0.67 0.67 -0.34 0.34 0 0 Z " fill="#FCE371" transform="translate(174,56)"/>
<path d="M0 0 C0 0.66 0 1.32 0 2 C-1.47695491 3.28430862 -2.95806138 4.56580708 -4.4921875 5.78125 C-6.13813095 7.06784671 -6.13813095 7.06784671 -8 9 C-8 7.68 -8 6.36 -8 5 C-2.77272727 0 -2.77272727 0 0 0 Z " fill="#0A0A0B" transform="translate(119,9)"/>
<path d="M0 0 C2.6875 0.875 2.6875 0.875 5 2 C3.8125 3.5 3.8125 3.5 2 5 C-0.6875 5.1875 -0.6875 5.1875 -3 5 C-3 4.01 -3 3.02 -3 2 C-2.01 1.34 -1.02 0.68 0 0 Z " fill="#535353" transform="translate(179,6)"/>
<path d="M0 0 C-0.33 0.66 -0.66 1.32 -1 2 C-3.06640625 2.4140625 -3.06640625 2.4140625 -5.5625 2.625 C-6.38878906 2.69976562 -7.21507813 2.77453125 -8.06640625 2.8515625 C-9.02353516 2.92503906 -9.02353516 2.92503906 -10 3 C-4.375 -1.3125 -4.375 -1.3125 0 0 Z " fill="#4E4E52" transform="translate(128,5)"/>
<path d="M0 0 C1.98 0.66 3.96 1.32 6 2 C6 2.66 6 3.32 6 4 C4.35 4.33 2.7 4.66 1 5 C0.67 3.35 0.34 1.7 0 0 Z " fill="#C37E1B" transform="translate(120,112)"/>
<path d="M0 0 C2.97 0.495 2.97 0.495 6 1 C6 1.99 6 2.98 6 4 C3.36 4 0.72 4 -2 4 C-1.01 3.34 -0.02 2.68 1 2 C0.67 1.34 0.34 0.68 0 0 Z " fill="#FAEFDB" transform="translate(160,88)"/>
<path d="M0 0 C0.99 0 1.98 0 3 0 C3.33 3.3 3.66 6.6 4 10 C1.07490914 6.09987886 0.52464905 4.61691161 0 0 Z " fill="#DDB883" transform="translate(100,88)"/>
<path d="M0 0 C2.5625 2.25 2.5625 2.25 5 5 C4.8125 7.3125 4.8125 7.3125 4 9 C3.67 8.01 3.34 7.02 3 6 C-0.00847418 4.77479736 -0.00847418 4.77479736 -3 4 C-2.34 3.67 -1.68 3.34 -1 3 C-0.67 2.01 -0.34 1.02 0 0 Z " fill="#CFC087" transform="translate(164,25)"/>
<path d="M0 0 C1.24546405 2.49092811 0.7767578 3.41080733 0 6 C-1.65 6 -3.3 6 -5 6 C-5.33 5.01 -5.66 4.02 -6 3 C-4.35 3 -2.7 3 -1 3 C-0.67 2.01 -0.34 1.02 0 0 Z " fill="#C1A46C" transform="translate(176,144)"/>
<path d="M0 0 C0.37125 0.515625 0.7425 1.03125 1.125 1.5625 C1.74375 2.036875 2.3625 2.51125 3 3 C5.00720923 2.71325582 7.0085944 2.38133299 9 2 C9.66 2.66 10.32 3.32 11 4 C10 5 10 5 8.15234375 5.09765625 C6.1015625 5.06510417 4.05078125 5.03255208 2 5 C1.34 3.35 0.68 1.7 0 0 Z " fill="#EDA21E" transform="translate(136,112)"/>
<path d="M0 0 C1.32 0.33 2.64 0.66 4 1 C1.75 3.5625 1.75 3.5625 -1 6 C-3.3125 5.8125 -3.3125 5.8125 -5 5 C-5 4.34 -5 3.68 -5 3 C-3.68 3 -2.36 3 -1 3 C-0.67 2.01 -0.34 1.02 0 0 Z " fill="#E39416" transform="translate(173,112)"/>
<path d="M0 0 C1.0326802 2.78823655 1.04509293 3.8677274 0.0625 6.75 C-0.288125 7.4925 -0.63875 8.235 -1 9 C-1.99 8.67 -2.98 8.34 -4 8 C-3.34 6.35 -2.68 4.7 -2 3 C-1.34 3 -0.68 3 0 3 C0 2.01 0 1.02 0 0 Z " fill="#FBE356" transform="translate(188,55)"/>
<path d="M0 0 C1.32 0.66 2.64 1.32 4 2 C3.34 3.32 2.68 4.64 2 6 C1.34 6 0.68 6 0 6 C-1.625 4 -1.625 4 -3 2 C-2.01 1.34 -1.02 0.68 0 0 Z " fill="#7F6920" transform="translate(177,46)"/>
<path d="M0 0 C0.66 0 1.32 0 2 0 C1.34 1.65 0.68 3.3 0 5 C-0.66 5 -1.32 5 -2 5 C-2 5.66 -2 6.32 -2 7 C-2.66 6.67 -3.32 6.34 -4 6 C-1.125 1.125 -1.125 1.125 0 0 Z " fill="#F1B641" transform="translate(151,144)"/>
<path d="M0 0 C3.875 1.75 3.875 1.75 5 4 C4.72057545 5.67654729 4.39171753 7.34608154 4 9 C3.34 9 2.68 9 2 9 C1.855625 7.88625 1.71125 6.7725 1.5625 5.625 C1.21627965 2.17857953 1.21627965 2.17857953 0 0 Z " fill="#F9CF5F" transform="translate(131,119)"/>
<path d="M0 0 C1.54743259 4.1264869 0.81810158 7.77314186 0 12 C-0.99 12.66 -1.98 13.32 -3 14 C-2.69024532 12.22868439 -2.37709575 10.45796222 -2.0625 8.6875 C-1.88847656 7.70136719 -1.71445313 6.71523437 -1.53515625 5.69921875 C-1 3 -1 3 0 0 Z " fill="#FBB122" transform="translate(195,72)"/>
<path d="M0 0 C1.9375 0.75 1.9375 0.75 4 2 C4.75 4.125 4.75 4.125 5 6 C2.03 5.505 2.03 5.505 -1 5 C-0.67 3.35 -0.34 1.7 0 0 Z " fill="#F1E37C" transform="translate(173,48)"/>
<path d="M0 0 C-1.6875 2.0625 -1.6875 2.0625 -4 4 C-6.75 3.75 -6.75 3.75 -9 3 C-5.92807025 0.26939578 -4.09590633 -0.34132553 0 0 Z " fill="#D3C89C" transform="translate(125,44)"/>
<path d="M0 0 C1.65 0.33 3.3 0.66 5 1 C3.75 2.5625 3.75 2.5625 2 4 C-0.1875 3.6875 -0.1875 3.6875 -2 3 C-1.34 2.01 -0.68 1.02 0 0 Z " fill="#E8DDBE" transform="translate(136,22)"/>
<path d="M0 0 C0.33 0 0.66 0 1 0 C1.26218749 3.14624993 1.24754367 4.61837017 -0.5 7.3125 C-1.2425 8.1478125 -1.2425 8.1478125 -2 9 C-2.99 8.67 -3.98 8.34 -5 8 C-3.625 5.5 -3.625 5.5 -2 3 C-1.34 3 -0.68 3 0 3 C0 2.01 0 1.02 0 0 Z " fill="#BA8A4A" transform="translate(152,154)"/>
<path d="M0 0 C1.46726798 3.81489674 0.43336419 6.29011622 -1 10 C-1.66 10 -2.32 10 -3 10 C-2.67 7.36 -2.34 4.72 -2 2 C-1.34 2 -0.68 2 0 2 C0 1.34 0 0.68 0 0 Z " fill="#F5B138" transform="translate(135,150)"/>
<path d="M0 0 C0.99 0 1.98 0 3 0 C3 0.66 3 1.32 3 2 C3.99 2.33 4.98 2.66 6 3 C4.02 3.99 4.02 3.99 2 5 C2 4.34 2 3.68 2 3 C1.01 2.67 0.02 2.34 -1 2 C-0.67 1.34 -0.34 0.68 0 0 Z " fill="#FCCD59" transform="translate(162,137)"/>
<path d="M0 0 C0.99 0.33 1.98 0.66 3 1 C2.67 1.66 2.34 2.32 2 3 C-0.28515625 3.4140625 -0.28515625 3.4140625 -3.0625 3.625 C-3.98160156 3.69976562 -4.90070313 3.77453125 -5.84765625 3.8515625 C-6.55792969 3.90054688 -7.26820313 3.94953125 -8 4 C-8 3.34 -8 2.68 -8 2 C-5.36 2 -2.72 2 0 2 C0 1.34 0 0.68 0 0 Z " fill="#EDC44C" transform="translate(165,125)"/>
<path d="M0 0 C1.32 0 2.64 0 4 0 C4 2.31 4 4.62 4 7 C3.34 6.67 2.68 6.34 2 6 C2 5.01 2 4.02 2 3 C1.34 3 0.68 3 0 3 C0 2.01 0 1.02 0 0 Z " fill="#E3A524" transform="translate(131,109)"/>
<path d="M0 0 C1.0625 1.875 1.0625 1.875 2 4 C1.67 4.66 1.34 5.32 1 6 C-0.98 5.01 -2.96 4.02 -5 3 C-4.67 2.34 -4.34 1.68 -4 1 C-3.01 1 -2.02 1 -1 1 C-0.67 0.67 -0.34 0.34 0 0 Z " fill="#DD8E15" transform="translate(123,108)"/>
<path d="M0 0 C0.99 0.33 1.98 0.66 3 1 C3 1.99 3 2.98 3 4 C3.99 4 4.98 4 6 4 C5.34 5.32 4.68 6.64 4 8 C0 2.25 0 2.25 0 0 Z " fill="#D9B06E" transform="translate(104,98)"/>
<path d="M0 0 C0.99 0.33 1.98 0.66 3 1 C2.67 1.66 2.34 2.32 2 3 C1.64830932 4.32860925 1.31229724 5.66158328 1 7 C0.34 6.67 -0.32 6.34 -1 6 C-1.042721 4.33388095 -1.04063832 2.66617115 -1 1 C-0.67 0.67 -0.34 0.34 0 0 Z " fill="#FADF4C" transform="translate(142,69)"/>
<path d="M0 0 C0.33 0.66 0.66 1.32 1 2 C1.66 2 2.32 2 3 2 C2.625 4.9375 2.625 4.9375 2 8 C1.01 8.495 1.01 8.495 0 9 C0 6.03 0 3.06 0 0 Z " fill="#FAD958" transform="translate(110,52)"/>
<path d="M0 0 C0.99 0.33 1.98 0.66 3 1 C2.34 3.64 1.68 6.28 1 9 C-0.4606285 6.35261084 -1 5.10551666 -1 2 C-0.67 1.34 -0.34 0.68 0 0 Z " fill="#050313" transform="translate(173,22)"/>
<path d="M0 0 C4.875 1.75 4.875 1.75 6 4 C5.4225 3.79375 4.845 3.5875 4.25 3.375 C1.48032433 2.91338739 0.35438733 3.57055055 -2 5 C-2 4.01 -2 3.02 -2 2 C-1.34 2 -0.68 2 0 2 C0 1.34 0 0.68 0 0 Z " fill="#626262" transform="translate(184,9)"/>
<path d="M0 0 C0.66 0 1.32 0 2 0 C2.33 2.64 2.66 5.28 3 8 C2.34 8 1.68 8 1 8 C-0.35439668 5.29120665 -0.06501451 2.99066732 0 0 Z " fill="#8D6307" transform="translate(162,64)"/>
<path d="M0 0 C1.65 0 3.3 0 5 0 C5 0.66 5 1.32 5 2 C3.02 2.99 1.04 3.98 -1 5 C-0.67 3.35 -0.34 1.7 0 0 Z " fill="#6A4608" transform="translate(164,57)"/>
<path d="M0 0 C1.65 1.65 3.3 3.3 5 5 C4.01 5.495 4.01 5.495 3 6 C3 5.34 3 4.68 3 4 C1.35 3.67 -0.3 3.34 -2 3 C-1 1 -1 1 0 0 Z " fill="#E8D267" transform="translate(178,52)"/>
<path d="M0 0 C-1.65 1.32 -3.3 2.64 -5 4 C-6.32 3.34 -7.64 2.68 -9 2 C-3.375 -1.125 -3.375 -1.125 0 0 Z " fill="#FBF375" transform="translate(137,50)"/>
<path d="M0 0 C4.05606165 0.46800711 7.46588679 0.87953208 11 3 C9.02 3.33 7.04 3.66 5 4 C5 3.34 5 2.68 5 2 C3.35 1.67 1.7 1.34 0 1 C0 0.67 0 0.34 0 0 Z " fill="#735B2A" transform="translate(123,43)"/>
</svg>
