<svg width="256" height="256" viewBox="0 0 256 256" fill="none" xmlns="http://www.w3.org/2000/svg">
<rect width="256" height="256" fill="#3EBD79" style="fill:#3EBD79;fill:color(display-p3 0.2425 0.7405 0.4749);fill-opacity:1;"/>
<path d="M65.28 179.8C57.28 179.8 50.08 177.987 43.68 174.36C37.3867 170.733 32.4267 165.72 28.8 159.32C25.1733 152.92 23.36 145.453 23.36 136.92C23.36 128.493 25.1733 121.08 28.8 114.68C32.4267 108.173 37.3867 103.16 43.68 99.64C50.08 96.0133 57.28 94.2 65.28 94.2C72.7467 94.2 79.36 95.8533 85.12 99.16C90.9867 102.467 95.6267 107.32 99.04 113.72C102.453 120.013 104.16 127.747 104.16 136.92C104.16 146.093 102.4 153.88 98.88 160.28C95.4667 166.573 90.8267 171.427 84.96 174.84C79.2 178.147 72.64 179.8 65.28 179.8ZM66.08 169.72C72.0533 169.72 77.3867 168.387 82.08 165.72C86.88 162.947 90.6133 159.107 93.28 154.2C96.0533 149.187 97.44 143.427 97.44 136.92C97.44 130.413 96.0533 124.707 93.28 119.8C90.6133 114.893 86.88 111.053 82.08 108.28C77.3867 105.507 72.0533 104.12 66.08 104.12C60.2133 104.12 54.9333 105.507 50.24 108.28C45.5467 111.053 41.8133 114.893 39.04 119.8C36.2667 124.707 34.88 130.413 34.88 136.92C34.88 143.427 36.2667 149.187 39.04 154.2C41.8133 159.107 45.5467 162.947 50.24 165.72C54.9333 168.387 60.2133 169.72 66.08 169.72ZM97.28 210.04V154.04L98.88 137.08L97.76 120.28V95H108.64V210.04H97.28ZM183.638 179.8C176.278 179.8 169.664 178.147 163.798 174.84C157.931 171.427 153.291 166.52 149.878 160.12C146.464 153.72 144.758 145.987 144.758 136.92C144.758 127.747 146.464 120.013 149.878 113.72C153.398 107.32 158.091 102.467 163.958 99.16C169.824 95.8533 176.384 94.2 183.638 94.2C191.638 94.2 198.784 96.0133 205.078 99.64C211.478 103.16 216.491 108.12 220.118 114.52C223.744 120.92 225.558 128.387 225.558 136.92C225.558 145.347 223.744 152.813 220.118 159.32C216.491 165.72 211.478 170.733 205.078 174.36C198.784 177.987 191.638 179.8 183.638 179.8ZM140.278 179V60.28H151.638V119.8L150.038 136.76L151.158 153.72V179H140.278ZM182.838 169.72C188.811 169.72 194.144 168.387 198.838 165.72C203.531 162.947 207.264 159.107 210.038 154.2C212.811 149.187 214.198 143.427 214.198 136.92C214.198 130.307 212.811 124.547 210.038 119.64C207.264 114.733 203.531 110.947 198.838 108.28C194.144 105.507 188.811 104.12 182.838 104.12C176.864 104.12 171.478 105.507 166.677 108.28C161.984 110.947 158.251 114.733 155.478 119.64C152.811 124.547 151.478 130.307 151.478 136.92C151.478 143.427 152.811 149.187 155.478 154.2C158.251 159.107 161.984 162.947 166.677 165.72C171.478 168.387 176.864 169.72 182.838 169.72Z" fill="white" style="fill:white;fill-opacity:1;"/>
</svg>
